<?xml version="1.0" encoding="utf-8"?>
<!-- Generator: Adobe Illustrator 23.0.1, SVG Export Plug-In . SVG Version: 6.00 Build 0)  -->
<svg version="1.1" xmlns="http://www.w3.org/2000/svg" xmlns:xlink="http://www.w3.org/1999/xlink" x="0px" y="0px"
	 viewBox="0 0 256.87 288.48" enable-background="new 0 0 256.87 288.48" xml:space="preserve">
<g id="Layer_6_copy_3">
</g>
<g id="Layer_6_copy_2">
	<g>
		<g id="XMLID_1_">
			<g>
				<path fill="#005C97" d="M256.62,216.68v71.55H0.25v-71.55l0.71-0.39l69.32-0.03c21.69-0.04,36.27-13.37,36.27-33.15
					c0-12.86-6.74-23.46-20.01-31.52c-12-7.23-15.8-9.89-15.8-17.73c0-5.02,3.76-10.4,14.34-10.4c5.79,0,10.17,1.75,13.28,3.47
					l3.9-20.74c-4.08-1.81-15.44-4.48-22.27-4.48c-17.28,0-34.7,10.25-34.7,33.12c0,6.71,2.71,19.62,20.86,30.68
					c9.67,6.28,14.69,9.97,14.49,19.21c-0.1,4.5-3.01,9.87-16.31,9.87l-64.04,0.05l-0.04-0.03V0.25h256.37v194.36l-13.64,14.32
					L256.62,216.68z M146.6,216.68V104.84h-22.06v111.84H146.6z"/>
				<rect x="124.54" y="104.84" fill="#FFFFFF" width="22.06" height="111.84"/>
				<path fill="#FFFFFF" d="M102.26,106.19l-3.9,20.74c-3.11-1.72-7.49-3.47-13.28-3.47c-10.58,0-14.34,5.38-14.34,10.4
					c0,7.84,3.8,10.5,15.8,17.73c13.27,8.06,20.01,18.66,20.01,31.52c0,19.78-14.58,33.11-36.27,33.15l-69.32,0.03l16.21-8.96
					L0.29,194.64l64.04-0.05c13.3,0,16.21-5.37,16.31-9.87c0.2-9.24-4.82-12.93-14.49-19.21C48,154.45,45.29,141.54,45.29,134.83
					c0-22.87,17.42-33.12,34.7-33.12C86.82,101.71,98.18,104.38,102.26,106.19z"/>
				<polygon fill="#FFFFFF" points="17.17,207.33 0.96,216.29 0.25,216.29 0.25,194.64 0.29,194.64 				"/>
			</g>
			<g>
			</g>
		</g>
	</g>
	<polygon fill="#FFFFFF" points="256.62,194.6 193.01,194.55 193.01,104.76 169.49,104.77 169.49,216.68 256.62,216.68 	"/>
	<rect x="0.25" y="216.29" fill="#005C97" width="0.73" height="0.39"/>
</g>
<g id="Layer_3">
	<g>
		<path fill="#FFFFFF" d="M239.87,263.91c4.32,0,7.73,3.36,7.73,7.63c0,4.37-3.41,7.73-7.78,7.73s-7.83-3.36-7.83-7.73
			c0-4.27,3.46-7.63,7.83-7.63H239.87z M239.78,265.26c-3.46,0-6.1,2.83-6.1,6.29c0,3.55,2.64,6.34,6.19,6.34
			c3.46,0.05,6-2.78,6-6.29c0-3.5-2.54-6.34-6.05-6.34H239.78z M238.43,275.77h-1.49v-8.02c0.82-0.14,1.68-0.24,2.78-0.24
			c1.34,0,2.02,0.24,2.54,0.62c0.48,0.34,0.82,0.96,0.82,1.68c0,1.01-0.72,1.63-1.58,1.92v0.1c0.72,0.29,1.1,0.91,1.34,1.92
			c0.24,1.25,0.38,1.73,0.58,2.02h-1.54c-0.24-0.29-0.43-1.01-0.62-2.11c-0.19-0.86-0.72-1.25-1.87-1.25h-0.96V275.77z
			 M238.43,271.26h1.01c1.1,0,2.06-0.34,2.06-1.3c0-0.77-0.48-1.3-1.92-1.3c-0.58,0-0.91,0.05-1.15,0.1V271.26z"/>
	</g>
	<g>
	</g>
	<g>
	</g>
	<g>
	</g>
	<g>
	</g>
	<g>
	</g>
	<g>
	</g>
</g>
</svg>
