<?xml version="1.0" encoding="utf-8"?>
<!-- Generator: Adobe Illustrator 16.0.0, SVG Export Plug-In . SVG Version: 6.00 Build 0)  -->
<!DOCTYPE svg PUBLIC "-//W3C//DTD SVG 1.1//EN" "http://www.w3.org/Graphics/SVG/1.1/DTD/svg11.dtd">
<svg version="1.1" id="Layer_1" xmlns="http://www.w3.org/2000/svg" xmlns:xlink="http://www.w3.org/1999/xlink" x="0px" y="0px"
	 width="67.75px" height="84.5px" viewBox="0 0 67.75 84.5" enable-background="new 0 0 67.75 84.5" xml:space="preserve">
<g>
	<g>
		<path fill="#193C69" d="M66.314,48.236c0.159,1.648-0.231,3.265-1.01,4.636c-1.012,1.749-2.687,3.121-4.782,3.686
			c-0.157,0.028-1.69,0.448-2.397,0.647c0.967,3.611,3.538,13.219,3.625,13.565c0.246,0.925,0.318,1.849,0.231,2.76
			c0.347,3.74-2.051,7.31-5.806,8.319c-4.204,1.129-8.51-1.357-9.635-5.561c-0.116-0.421-4.001-14.922-4.001-14.922
			s-16.714,4.478-17.176,4.607c-2.094,0.564-4.232,0.203-5.981-0.793c-1.732-1.013-3.104-2.688-3.667-4.781
			C15.484,59.52,3.841,16.111,3.609,15.23c-0.246-0.938-0.316-1.878-0.23-2.772c-0.159-1.662,0.23-3.265,1.025-4.652
			C5.4,6.042,7.091,4.699,9.187,4.121c4.188-1.112,8.507,1.374,9.635,5.578l10.066,37.599c0,0,7.383-1.964,9.217-2.455
			c-0.981-3.643-3.611-13.449-3.713-13.824c-0.245-0.911-0.317-1.819-0.23-2.717c-0.159-1.676,0.23-3.321,1.026-4.709
			c1.01-1.731,2.686-3.089,4.779-3.652c0.203-0.06,10.185-2.731,10.388-2.788c2.094-0.564,4.232-0.217,5.965,0.779
			c1.748,1.013,3.119,2.685,3.685,4.781c0.245,0.908,0.317,1.82,0.23,2.714c0.159,1.677-0.23,3.324-1.027,4.712
			c-1.009,1.761-2.685,3.104-4.78,3.667c-0.159,0.043-1.689,0.463-2.398,0.649l1.646,6.185c0,0,2.572-0.694,2.773-0.751
			c2.097-0.55,4.218-0.217,5.968,0.793c1.746,0.996,3.12,2.672,3.667,4.768C66.345,46.39,66.417,47.326,66.314,48.236z"/>
	</g>
	<g>
		<g>
			<path fill="#193C69" d="M28.896,45.851c0,0,8.772-2.342,9.567-2.556c-0.112-0.418-3.947-14.723-4.065-15.165
				c-0.562-2.099-0.212-4.231,0.796-5.976c1.008-1.743,2.683-3.101,4.782-3.661c0.197-0.055,10.179-2.729,10.373-2.782
				c2.102-0.562,4.232-0.226,5.976,0.781s3.112,2.68,3.676,4.779c0.563,2.099,0.212,4.231-0.795,5.978
				c-1.004,1.756-2.681,3.112-4.779,3.674c-0.194,0.054-2.762,0.742-2.762,0.742l2.018,7.526c0,0,2.566-0.688,2.762-0.741
				c2.099-0.562,4.229-0.226,5.973,0.781c1.746,1.008,3.114,2.681,3.676,4.779c0.564,2.1,0.214,4.232-0.793,5.976
				c-1.007,1.744-2.68,3.115-4.779,3.676c-0.197,0.054-2.762,0.743-2.762,0.743s3.882,14.486,3.997,14.918
				c1.126,4.198-1.379,8.515-5.577,9.638c-4.201,1.125-8.512-1.363-9.637-5.564c-0.11-0.417-3.996-14.918-3.996-14.918
				s-16.724,4.482-17.178,4.604c-2.1,0.562-4.232,0.212-5.976-0.796c-1.746-1.005-3.115-2.678-3.676-4.776
				c-0.237-0.886-11.87-44.289-12.106-45.175c-0.562-2.098-0.213-4.23,0.795-5.976c1.005-1.754,2.68-3.11,4.779-3.676
				c4.198-1.125,8.512,1.366,9.641,5.574L28.896,45.851z"/>
		</g>
	</g>
	<g opacity="0.2">
		<g>
			<path fill="#193C69" d="M28.896,45.851c0,0,8.772-2.342,9.567-2.556c-0.112-0.418-3.947-14.723-4.065-15.165
				c-0.562-2.099-0.212-4.231,0.796-5.976c1.008-1.743,2.683-3.101,4.782-3.661c0.197-0.055,10.179-2.729,10.373-2.782
				c2.102-0.562,4.232-0.226,5.976,0.781s3.112,2.68,3.676,4.779c0.563,2.099,0.212,4.231-0.795,5.978
				c-1.004,1.756-2.681,3.112-4.779,3.674c-0.194,0.054-2.762,0.742-2.762,0.742l2.018,7.526c0,0,2.566-0.688,2.762-0.741
				c2.099-0.562,4.229-0.226,5.973,0.781c1.746,1.008,3.114,2.681,3.676,4.779c0.564,2.1,0.214,4.232-0.793,5.976
				c-1.007,1.744-2.68,3.115-4.779,3.676c-0.197,0.054-2.762,0.743-2.762,0.743s3.882,14.486,3.997,14.918
				c1.126,4.198-1.379,8.515-5.577,9.638c-4.201,1.125-8.512-1.363-9.637-5.564c-0.11-0.417-3.996-14.918-3.996-14.918
				s-16.724,4.482-17.178,4.604c-2.1,0.562-4.232,0.212-5.976-0.796c-1.746-1.005-3.115-2.678-3.676-4.776
				c-0.237-0.886-11.87-44.289-12.106-45.175c-0.562-2.098-0.213-4.23,0.795-5.976c1.005-1.754,2.68-3.11,4.779-3.676
				c4.198-1.125,8.512,1.366,9.641,5.574L28.896,45.851z"/>
		</g>
	</g>
	<g opacity="0.7">
		<g>
			<path fill="#193C69" d="M65.305,49.984c-1.012,1.748-2.687,3.119-4.782,3.684c-0.201,0.042-2.759,0.737-2.759,0.737
				s3.87,14.489,3.986,14.921c1.128,4.189-1.371,8.51-5.574,9.635c-4.204,1.128-8.51-1.356-9.635-5.561
				c-0.116-0.421-4.001-14.922-4.001-14.922s-0.507,0.13-1.329,0.36l-0.029-0.101c-0.594,0.188-1.17,0.375-1.748,0.563
				c-4.854,1.315-13.736,3.683-14.069,3.783c-2.094,0.564-4.232,0.203-5.981-0.792c-0.417-0.246-0.807-0.521-1.168-0.839L18.59,61.7
				l0.403,0.26c0.102,0.056,0.275,0.115,0.405,0.172l0.838,0.361c0.576,0.175,1.184,0.319,1.762,0.375
				c0.606-0.028,1.157,0.102,1.791-0.084l0.926-0.175c0.23-0.043,0.592-0.159,0.867-0.246l1.805-0.533
				c4.824-1.416,15.32-4.96,15.32-4.96l3.676,14.044c0.158,0.537,0.302,1.143,0.475,1.634c0.218,0.449,0.318,0.953,0.608,1.371
				c0.302,0.406,0.491,0.867,0.881,1.185l0.519,0.537c0.175,0.172,0.406,0.287,0.606,0.445c0.203,0.13,0.391,0.291,0.622,0.406
				l0.679,0.288c0.435,0.245,0.939,0.272,1.416,0.403c0.477,0.13,0.895,0.045,1.343,0.102c0.231,0.014,0.549-0.085,0.824-0.115
				l0.434-0.071l0.215-0.046l0.102-0.014h0.015c0.435-0.186,0.91-0.332,1.328-0.547c0.391-0.29,0.853-0.477,1.185-0.824
				c0.348-0.361,0.752-0.65,0.982-1.083l0.42-0.592c0.131-0.203,0.202-0.435,0.318-0.652c0.085-0.229,0.216-0.432,0.275-0.678
				l0.157-0.707c0.174-0.478,0.071-0.881,0.13-1.329c0.044-0.189-0.015-0.491-0.059-0.782l-0.158-0.852l-0.015-0.099v-0.059H59.67
				v-0.015c0-0.014,0-0.014,0-0.014l-0.028-0.103l-0.115-0.42l-0.231-0.836l-3.669-13.406l-0.361-1.356l1.358-0.361l1.834-0.505
				l0.91-0.245l0.737-0.291c0.506-0.13,0.908-0.478,1.357-0.736c0.434-0.288,0.679-0.606,1.069-0.953l0.547-0.766l0.218-0.304
				l0.014-0.015l0.016-0.042l0.044-0.102l0.07-0.172l0.334-0.709c0.086-0.245,0.115-0.507,0.188-0.753
				c0.172-0.52,0.115-0.967,0.172-1.413c0.059-0.189-0.042-0.564-0.086-0.853l-0.116-0.781l-0.015-0.043c0-0.014,0-0.014,0-0.028
				l-0.028-0.044l-0.029-0.088l-0.072-0.187l-0.131-0.36c-0.101-0.231-0.157-0.492-0.316-0.709c-0.29-0.417-0.534-0.911-0.882-1.199
				c-0.158-0.172-0.273-0.347-0.477-0.533l-0.778-0.55l-0.275-0.203h-0.016v-0.014h-0.028L60.841,39.7l-0.087-0.028l-0.173-0.087
				l-0.708-0.334c-0.49-0.115-1.026-0.301-1.488-0.315c-0.477,0-0.853-0.131-1.559,0.028l-0.463,0.087l-0.23,0.028l-0.088,0.015
				h-0.027l-0.103,0.028h-0.014l-0.781,0.203l-1.849,0.49l-1.358,0.361l-0.36-1.344l-1.979-7.54l-0.361-1.314l1.329-0.362
				c1.286-0.36,2.817-0.677,3.771-1.097c0.29-0.057,0.507-0.26,0.752-0.403c0.216-0.161,0.533-0.277,0.692-0.463
				c0.377-0.361,0.78-0.621,1.184-1.273l0.305-0.416l0.072-0.116l0.086-0.189l0.376-0.793c0.13-0.26,0.145-0.55,0.231-0.838
				c0.072-0.272,0.174-0.563,0.159-0.81c0.015-0.259,0.029-0.519,0.057-0.778c0.015-0.29-0.087-0.666-0.129-0.999l-0.074-0.519
				v-0.057l-0.013-0.017l-0.015-0.029l-0.072-0.217l-0.304-0.806c-0.071-0.291-0.289-0.509-0.433-0.769
				c-0.16-0.231-0.275-0.533-0.477-0.69c-0.188-0.189-0.361-0.393-0.534-0.593c-0.158-0.217-0.521-0.42-0.78-0.623l-0.419-0.303
				l-0.028-0.028c-0.015-0.014-0.015-0.014-0.03-0.014l-0.044-0.018l-0.201-0.099l-0.795-0.378
				c-0.272-0.098-0.578-0.144-0.852-0.229c-0.289-0.088-0.578-0.16-0.838-0.146c-0.275-0.014-0.535-0.028-0.81-0.057
				c-0.317,0.028-0.679,0.088-1.01,0.13l-0.521,0.088h-0.016l-0.056,0.014h-0.014l-0.06,0.015l-0.246,0.057l-1.01,0.262
				l-3.842,0.838c2.715-0.739,5.633-1.518,5.749-1.546c2.094-0.564,4.232-0.218,5.965,0.778c1.748,1.013,3.119,2.686,3.685,4.782
				c0.563,2.093,0.202,4.232-0.797,5.98c-1.009,1.761-2.685,3.104-4.78,3.668c-0.202,0.06-2.759,0.751-2.759,0.751l2.007,7.527
				c0,0,2.572-0.694,2.773-0.751c2.097-0.55,4.218-0.218,5.968,0.793c1.746,0.996,3.12,2.672,3.667,4.769
				C66.661,46.112,66.301,48.236,65.305,49.984z"/>
		</g>
	</g>
</g>
</svg>
