<?xml version="1.0" encoding="utf-8"?>
<!-- Generator: Adobe Illustrator 16.0.0, SVG Export Plug-In . SVG Version: 6.00 Build 0)  -->
<!DOCTYPE svg PUBLIC "-//W3C//DTD SVG 1.1//EN" "http://www.w3.org/Graphics/SVG/1.1/DTD/svg11.dtd">
<svg version="1.1" id="Layer_1" xmlns="http://www.w3.org/2000/svg" xmlns:xlink="http://www.w3.org/1999/xlink" x="0px" y="0px"
	 width="292px" height="324px" viewBox="0 0 292 324" enable-background="new 0 0 292 324" xml:space="preserve">
<g>
	<g>
		<g>
			<path fill="#062E3A" d="M217.353,118.373c0.384,3.984-0.559,7.893-2.443,11.208c-2.443,4.225-6.494,7.543-11.556,8.908
				c-0.387,0.068-4.088,1.081-5.798,1.567c2.339,8.729,8.554,31.951,8.763,32.79c0.594,2.233,0.769,4.467,0.561,6.669
				c0.839,9.042-4.959,17.666-14.036,20.112c-10.162,2.724-20.566-3.285-23.29-13.447c-0.278-1.013-9.672-36.068-9.672-36.068
				s-40.397,10.826-41.516,11.142c-5.063,1.359-10.23,0.486-14.456-1.92c-4.189-2.445-7.506-6.495-8.867-11.56
				c-0.559-2.128-28.702-107.05-29.261-109.181c-0.593-2.271-0.767-4.539-0.557-6.705c-0.386-4.017,0.557-7.891,2.478-11.243
				c2.409-4.262,6.494-7.508,11.558-8.906c10.126-2.687,20.564,3.318,23.289,13.479l24.335,90.889c0,0,17.844-4.75,22.278-5.937
				c-2.374-8.801-8.729-32.509-8.974-33.417c-0.594-2.199-0.768-4.399-0.559-6.564c-0.386-4.051,0.559-8.03,2.479-11.382
				c2.443-4.19,6.494-7.47,11.555-8.835c0.49-0.14,24.617-6.598,25.107-6.737c5.062-1.364,10.229-0.526,14.42,1.886
				c4.224,2.445,7.542,6.492,8.904,11.556c0.592,2.199,0.769,4.398,0.559,6.564c0.384,4.051-0.559,8.034-2.479,11.385
				c-2.445,4.258-6.493,7.504-11.558,8.869c-0.384,0.102-4.085,1.115-5.796,1.568l3.98,14.944c0,0,6.213-1.673,6.702-1.813
				c5.065-1.33,10.197-0.525,14.421,1.919c4.226,2.408,7.543,6.458,8.869,11.522C217.422,113.906,217.598,116.175,217.353,118.373z"
				/>
		</g>
		<g>
			<g>
				<path fill="#27AAE1" d="M126.902,112.605c0,0,21.201-5.662,23.125-6.179c-0.273-1.007-9.541-35.585-9.828-36.653
					c-1.356-5.074-0.512-10.233,1.924-14.447c2.435-4.214,6.486-7.494,11.559-8.852c0.478-0.13,24.604-6.595,25.076-6.725
					c5.08-1.356,10.229-0.545,14.443,1.889s7.522,6.479,8.887,11.553c1.357,5.073,0.512,10.229-1.924,14.45
					c-2.427,4.242-6.478,7.522-11.552,8.882c-0.47,0.126-6.677,1.791-6.677,1.791l4.875,18.195c0,0,6.207-1.665,6.678-1.794
					c5.073-1.357,10.221-0.545,14.437,1.89c4.222,2.435,7.528,6.479,8.887,11.552c1.362,5.075,0.518,10.23-1.917,14.445
					c-2.436,4.214-6.478,7.529-11.553,8.885c-0.477,0.13-6.675,1.793-6.675,1.793s9.383,35.02,9.662,36.063
					c2.722,10.146-3.334,20.582-13.481,23.294c-10.154,2.721-20.574-3.293-23.297-13.444c-0.267-1.013-9.656-36.062-9.656-36.062
					s-40.426,10.833-41.524,11.125c-5.073,1.358-10.229,0.512-14.443-1.923c-4.222-2.426-7.529-6.471-8.887-11.545
					c-0.572-2.138-28.69-107.054-29.263-109.195c-1.357-5.074-0.512-10.229,1.923-14.444c2.428-4.241,6.479-7.522,11.553-8.885
					c10.147-2.722,20.575,3.3,23.302,13.475L126.902,112.605z"/>
			</g>
		</g>
		<g opacity="0.2">
			<g>
				<linearGradient id="SVGID_1_" gradientUnits="userSpaceOnUse" x1="169.2783" y1="13.1934" x2="71.9252" y2="268.9488">
					<stop  offset="0" style="stop-color:#FFFFFF"/>
					<stop  offset="1" style="stop-color:#000000"/>
				</linearGradient>
				<path fill="url(#SVGID_1_)" d="M126.902,112.605c0,0,21.201-5.662,23.125-6.179c-0.273-1.007-9.541-35.585-9.828-36.653
					c-1.356-5.074-0.512-10.233,1.924-14.447c2.435-4.214,6.486-7.494,11.559-8.852c0.478-0.13,24.604-6.595,25.076-6.725
					c5.08-1.356,10.229-0.545,14.443,1.889s7.522,6.479,8.887,11.553c1.357,5.073,0.512,10.229-1.924,14.45
					c-2.427,4.242-6.478,7.522-11.552,8.882c-0.47,0.126-6.677,1.791-6.677,1.791l4.875,18.195c0,0,6.207-1.665,6.678-1.794
					c5.073-1.357,10.221-0.545,14.437,1.89c4.222,2.435,7.528,6.479,8.887,11.552c1.362,5.075,0.518,10.23-1.917,14.445
					c-2.436,4.214-6.478,7.529-11.553,8.885c-0.477,0.13-6.675,1.793-6.675,1.793s9.383,35.02,9.662,36.063
					c2.722,10.146-3.334,20.582-13.481,23.294c-10.154,2.721-20.574-3.293-23.297-13.444c-0.267-1.013-9.656-36.062-9.656-36.062
					s-40.426,10.833-41.524,11.125c-5.073,1.358-10.229,0.512-14.443-1.923c-4.222-2.426-7.529-6.471-8.887-11.545
					c-0.572-2.138-28.69-107.054-29.263-109.195c-1.357-5.074-0.512-10.229,1.923-14.444c2.428-4.241,6.479-7.522,11.553-8.885
					c10.147-2.722,20.575,3.3,23.302,13.475L126.902,112.605z"/>
			</g>
		</g>
		<g opacity="0.7">
			<g>
				<path fill="#30C1F1" d="M214.909,122.599c-2.443,4.225-6.494,7.543-11.556,8.906c-0.489,0.104-6.67,1.78-6.67,1.78
					s9.356,35.022,9.635,36.068c2.726,10.125-3.316,20.565-13.476,23.29c-10.162,2.724-20.566-3.283-23.29-13.445
					c-0.278-1.013-9.672-36.068-9.672-36.068s-1.223,0.317-3.212,0.872l-0.071-0.241c-1.43,0.454-2.827,0.907-4.223,1.36
					c-11.733,3.178-33.207,8.903-34.01,9.148c-5.063,1.361-10.23,0.486-14.456-1.92c-1.011-0.594-1.954-1.257-2.827-2.024
					l0.907,0.593l0.979,0.627c0.243,0.141,0.663,0.279,0.977,0.419l2.025,0.874c1.396,0.418,2.863,0.767,4.259,0.905
					c1.468-0.068,2.793,0.245,4.331-0.207l2.234-0.42c0.558-0.104,1.431-0.385,2.094-0.593l4.364-1.292
					c11.663-3.421,37.034-11.989,37.034-11.989l8.882,33.951c0.384,1.293,0.733,2.759,1.151,3.945
					c0.524,1.084,0.768,2.305,1.467,3.318c0.734,0.979,1.188,2.093,2.131,2.864l1.256,1.293c0.419,0.415,0.979,0.695,1.466,1.081
					c0.489,0.313,0.942,0.699,1.501,0.979l1.645,0.699c1.045,0.592,2.269,0.661,3.421,0.974c1.15,0.315,2.163,0.107,3.245,0.247
					c0.559,0.033,1.326-0.208,1.992-0.28l1.047-0.173l0.522-0.107l0.246-0.034h0.034c1.046-0.454,2.199-0.804,3.211-1.326
					c0.944-0.699,2.061-1.153,2.866-1.991c0.835-0.873,1.813-1.571,2.371-2.619l1.014-1.432c0.315-0.488,0.49-1.047,0.769-1.573
					c0.21-0.555,0.523-1.045,0.664-1.639l0.384-1.712c0.419-1.153,0.174-2.128,0.313-3.212c0.106-0.454-0.032-1.186-0.139-1.885
					l-0.384-2.06l-0.033-0.242v-0.14h-0.037v-0.037c0-0.035,0-0.035,0-0.035l-0.07-0.245l-0.279-1.013l-0.556-2.021l-8.869-32.403
					l-0.874-3.285l3.282-0.872l4.433-1.221l2.201-0.592l1.781-0.699c1.222-0.313,2.199-1.153,3.281-1.782
					c1.047-0.699,1.642-1.464,2.584-2.303l1.326-1.852l0.525-0.733l0.033-0.034l0.036-0.107l0.104-0.245l0.174-0.415l0.806-1.712
					c0.209-0.594,0.277-1.224,0.453-1.818c0.42-1.254,0.279-2.338,0.42-3.419c0.138-0.454-0.105-1.365-0.211-2.06l-0.278-1.885
					l-0.037-0.107c0-0.033,0-0.033,0-0.068l-0.069-0.105l-0.068-0.212l-0.176-0.452l-0.313-0.874
					c-0.245-0.559-0.385-1.186-0.769-1.711c-0.697-1.009-1.293-2.199-2.129-2.895c-0.383-0.42-0.664-0.839-1.152-1.293l-1.887-1.326
					l-0.662-0.491h-0.037v-0.034h-0.068l-0.104-0.071l-0.211-0.068l-0.418-0.208l-1.71-0.804c-1.188-0.28-2.479-0.733-3.599-0.767
					c-1.151,0-2.06-0.313-3.77,0.068l-1.117,0.211l-0.557,0.068l-0.211,0.034h-0.069l-0.246,0.072h-0.035l-1.885,0.487l-4.469,1.187
					l-3.284,0.873l-0.873-3.246l-4.781-18.227l-0.873-3.177l3.214-0.874c3.106-0.873,6.807-1.64,9.112-2.652
					c0.699-0.14,1.221-0.631,1.814-0.979c0.523-0.386,1.292-0.665,1.676-1.118c0.91-0.873,1.885-1.5,2.863-3.072l0.733-1.013
					l0.176-0.28l0.208-0.454l0.908-1.919c0.313-0.628,0.35-1.327,0.559-2.026c0.175-0.662,0.42-1.361,0.384-1.954
					c0.036-0.631,0.069-1.258,0.139-1.886c0.037-0.699-0.21-1.606-0.313-2.411l-0.175-1.258v-0.137l-0.035-0.038l-0.033-0.067
					l-0.176-0.525l-0.733-1.954c-0.174-0.699-0.699-1.224-1.047-1.852c-0.385-0.559-0.663-1.292-1.152-1.674
					c-0.453-0.457-0.874-0.944-1.292-1.432c-0.384-0.526-1.257-1.013-1.888-1.504l-1.012-0.733l-0.07-0.068
					c-0.033-0.034-0.033-0.034-0.069-0.034l-0.104-0.037l-0.488-0.242l-1.92-0.91c-0.664-0.242-1.396-0.348-2.063-0.556
					c-0.696-0.211-1.396-0.385-2.022-0.351c-0.666-0.034-1.293-0.068-1.955-0.141c-0.77,0.072-1.644,0.212-2.445,0.313l-1.257,0.212
					h-0.036l-0.139,0.034h-0.035l-0.141,0.034l-0.592,0.139l-2.445,0.631l-9.286,2.025c6.564-1.783,13.616-3.669,13.896-3.738
					c5.062-1.364,10.229-0.524,14.42,1.886c4.224,2.445,7.542,6.492,8.904,11.557c1.36,5.063,0.487,10.232-1.921,14.457
					c-2.445,4.259-6.493,7.505-11.558,8.87c-0.489,0.139-6.669,1.814-6.669,1.814l4.854,18.191c0,0,6.213-1.674,6.702-1.814
					c5.065-1.329,10.197-0.525,14.421,1.92c4.226,2.407,7.543,6.458,8.869,11.522C218.192,113.243,217.319,118.373,214.909,122.599z
					"/>
			</g>
		</g>
	</g>
	<g>
		<g>
			<path fill="#259CCF" d="M89.405,308.83c0,1.159,0.017,2.172,0.051,3.038s0.075,1.612,0.123,2.24
				c0.047,0.627,0.109,1.152,0.184,1.575c0.075,0.423,0.153,0.777,0.235,1.063v0.082h-4.91v-0.082
				c0.082-0.286,0.16-0.641,0.235-1.063c0.075-0.423,0.14-0.948,0.195-1.575c0.054-0.628,0.095-1.374,0.123-2.24
				s0.041-1.879,0.041-3.038v-13.319c0-1.159-0.014-2.172-0.041-3.038c-0.027-0.865-0.068-1.616-0.123-2.25
				c-0.055-0.635-0.12-1.163-0.195-1.586c-0.075-0.423-0.153-0.777-0.235-1.063v-0.082c1.132,0,2.277-0.003,3.437-0.01
				c1.159-0.007,2.284-0.014,3.375-0.021s2.128-0.021,3.11-0.041s1.869-0.041,2.66-0.062s1.459-0.048,2.005-0.082
				c0.545-0.034,0.934-0.071,1.166-0.112l-1.002,2.721c-0.45-0.123-0.975-0.231-1.575-0.327c-0.519-0.082-1.149-0.16-1.893-0.235
				c-0.744-0.075-1.599-0.112-2.567-0.112c-0.328,0-0.737,0.01-1.228,0.03c-0.491,0.021-0.976,0.045-1.453,0.072
				c-0.546,0.027-1.119,0.055-1.719,0.081v10.332c1.405-0.014,2.694-0.055,3.867-0.123c1.173-0.067,2.182-0.136,3.028-0.204
				c0.982-0.082,1.868-0.178,2.66-0.287l-0.614,2.967c-1.023-0.122-2.06-0.238-3.11-0.348c-0.9-0.095-1.869-0.181-2.905-0.256
				c-1.037-0.074-2.012-0.112-2.926-0.112V308.83z"/>
			<path fill="#259CCF" d="M117.986,287c2.277,0,4.381,0.372,6.311,1.115s3.598,1.787,5.002,3.13
				c1.406,1.344,2.504,2.957,3.295,4.839s1.186,3.962,1.186,6.24c0,1.296-0.15,2.57-0.449,3.825c-0.301,1.255-0.74,2.441-1.32,3.56
				c-0.58,1.119-1.291,2.152-2.137,3.1c-0.846,0.948-1.811,1.767-2.896,2.455c-1.084,0.689-2.279,1.228-3.59,1.616
				c-1.309,0.389-2.721,0.583-4.234,0.583c-2.279,0-4.383-0.364-6.312-1.094c-1.93-0.729-3.598-1.763-5.002-3.1
				c-1.405-1.337-2.503-2.942-3.294-4.818c-0.791-1.875-1.187-3.959-1.187-6.25c0-1.296,0.15-2.571,0.45-3.826
				c0.3-1.255,0.739-2.447,1.319-3.58c0.58-1.132,1.289-2.172,2.128-3.12c0.839-0.947,1.8-1.77,2.884-2.465
				c1.084-0.695,2.285-1.238,3.601-1.627C115.057,287.194,116.473,287,117.986,287z M119.152,315.622
				c1.514,0,2.898-0.272,4.152-0.818c1.256-0.545,2.336-1.337,3.242-2.373c0.908-1.036,1.613-2.302,2.119-3.795
				c0.504-1.494,0.756-3.188,0.756-5.084c0-2.101-0.242-4.048-0.727-5.842c-0.484-1.793-1.203-3.348-2.158-4.664
				s-2.145-2.346-3.57-3.09c-1.424-0.743-3.086-1.114-4.98-1.114c-1.514,0-2.898,0.27-4.154,0.808
				c-1.255,0.539-2.335,1.319-3.243,2.343c-0.907,1.022-1.613,2.278-2.117,3.765c-0.505,1.486-0.757,3.178-0.757,5.073
				c0,2.087,0.239,4.034,0.716,5.841c0.477,1.808,1.193,3.373,2.148,4.695c0.955,1.323,2.148,2.363,3.581,3.12
				C115.592,315.243,117.256,315.622,119.152,315.622z"/>
			<path fill="#259CCF" d="M142.7,308.83c0,1.159,0.018,2.172,0.052,3.038c0.033,0.866,0.074,1.612,0.122,2.24
				c0.048,0.627,0.109,1.152,0.185,1.575c0.074,0.423,0.153,0.777,0.235,1.063v0.082h-4.91v-0.082
				c0.082-0.286,0.16-0.641,0.235-1.063c0.074-0.423,0.14-0.948,0.194-1.575c0.054-0.628,0.095-1.374,0.122-2.24
				s0.041-1.879,0.041-3.038v-13.319c0-1.159-0.014-2.172-0.041-3.038c-0.027-0.865-0.068-1.616-0.122-2.25
				c-0.055-0.635-0.12-1.163-0.194-1.586c-0.075-0.423-0.153-0.777-0.235-1.063v-0.082c0.272,0.027,0.559,0.055,0.859,0.082
				c0.259,0.027,0.549,0.044,0.869,0.051s0.651,0.011,0.992,0.011c0.532,0,1.251-0.064,2.158-0.194s2.063-0.194,3.468-0.194
				c1.31,0,2.52,0.177,3.632,0.531c1.111,0.355,2.076,0.873,2.895,1.555c0.818,0.683,1.456,1.518,1.913,2.507
				s0.686,2.11,0.686,3.365c0,0.982-0.126,1.893-0.379,2.731c-0.252,0.839-0.606,1.6-1.063,2.281s-1.006,1.285-1.646,1.811
				c-0.642,0.525-1.357,0.965-2.148,1.319l7.181,10.086c0.354,0.505,0.686,0.941,0.992,1.31s0.601,0.683,0.88,0.941
				s0.549,0.474,0.809,0.645c0.259,0.171,0.524,0.311,0.798,0.419v0.082h-5.913c-0.041-0.259-0.174-0.604-0.398-1.033
				c-0.226-0.43-0.488-0.855-0.788-1.278l-7.242-10.209c-0.669,0.068-1.357,0.102-2.066,0.102s-1.433-0.061-2.169-0.184V308.83z
				 M142.7,302.631c1.337,0.245,2.561,0.279,3.673,0.103c1.111-0.178,2.066-0.566,2.864-1.167c0.798-0.6,1.418-1.414,1.861-2.444
				c0.443-1.029,0.665-2.281,0.665-3.754c0-1.023-0.116-1.95-0.348-2.782c-0.232-0.832-0.576-1.538-1.033-2.118
				c-0.457-0.579-1.033-1.029-1.729-1.35c-0.696-0.32-1.508-0.481-2.435-0.481c-0.587,0-1.099,0.024-1.535,0.072
				s-0.805,0.099-1.104,0.153c-0.354,0.068-0.647,0.143-0.88,0.225V302.631z"/>
			<path fill="#259CCF" d="M188.957,313.392c0,0.15-0.017,0.308-0.051,0.471c-0.034,0.164-0.112,0.301-0.235,0.409
				c-0.613,0.464-1.278,0.891-1.994,1.279c-0.717,0.389-1.491,0.726-2.322,1.013c-0.832,0.286-1.729,0.508-2.69,0.665
				c-0.962,0.156-1.995,0.234-3.1,0.234c-2.482,0-4.746-0.364-6.792-1.094s-3.803-1.763-5.269-3.1s-2.602-2.942-3.406-4.818
				c-0.805-1.875-1.207-3.959-1.207-6.25c0-1.296,0.167-2.571,0.501-3.826s0.821-2.447,1.463-3.58
				c0.641-1.132,1.433-2.172,2.373-3.12c0.941-0.947,2.016-1.77,3.223-2.465s2.537-1.238,3.989-1.627s3.024-0.583,4.716-0.583
				c0.654,0,1.322,0.031,2.005,0.092c0.682,0.062,1.357,0.15,2.025,0.267s1.313,0.256,1.934,0.419c0.62,0.164,1.21,0.348,1.77,0.553
				l1.392,3.785l-0.164,0.081c-0.532-0.477-1.146-0.92-1.842-1.329c-0.695-0.409-1.438-0.764-2.229-1.064
				c-0.791-0.3-1.62-0.535-2.485-0.705c-0.867-0.171-1.743-0.256-2.629-0.256c-1.719,0-3.294,0.27-4.727,0.808
				c-1.432,0.539-2.663,1.319-3.692,2.343c-1.03,1.022-1.831,2.278-2.404,3.765s-0.859,3.178-0.859,5.073
				c0,2.087,0.272,4.024,0.818,5.811c0.546,1.787,1.357,3.335,2.435,4.645c1.077,1.309,2.425,2.335,4.041,3.079
				c1.616,0.743,3.501,1.114,5.656,1.114c0.955,0,1.808-0.074,2.558-0.225s1.385-0.338,1.902-0.563
				c0.519-0.226,0.911-0.471,1.177-0.736c0.266-0.267,0.399-0.509,0.399-0.727v-0.798c0-0.955-0.014-1.78-0.041-2.476
				s-0.068-1.299-0.123-1.811s-0.116-0.951-0.185-1.319c-0.068-0.369-0.149-0.709-0.245-1.023v-0.082h4.91v0.082
				c-0.082,0.286-0.16,0.624-0.235,1.013s-0.14,0.849-0.194,1.381s-0.096,1.156-0.123,1.872s-0.041,1.545-0.041,2.485V313.392z"/>
			<path fill="#259CCF" d="M199.32,287.471c1.685-0.014,3.229-0.03,4.634-0.051c1.404-0.021,2.604-0.052,3.601-0.093
				c0.995-0.04,1.671-0.095,2.025-0.163l-1.002,2.721c-0.45-0.123-0.976-0.231-1.576-0.327c-0.518-0.082-1.148-0.16-1.892-0.235
				c-0.744-0.075-1.6-0.112-2.568-0.112c-0.327,0-0.719,0.01-1.176,0.03s-0.897,0.045-1.319,0.072
				c-0.491,0.027-0.989,0.055-1.494,0.081v11.171c1.405-0.014,2.673-0.055,3.806-0.123c1.132-0.067,2.094-0.136,2.885-0.204
				c0.927-0.082,1.745-0.178,2.455-0.287l-0.635,2.967c-0.94-0.123-1.902-0.238-2.885-0.348c-0.846-0.096-1.766-0.181-2.762-0.256
				c-0.995-0.074-1.95-0.112-2.864-0.112v12.827c1.609,0,3.09-0.067,4.439-0.204c1.351-0.137,2.53-0.293,3.54-0.471
				c1.173-0.19,2.243-0.416,3.212-0.675l-0.594,3.314c-0.163-0.014-0.409-0.028-0.736-0.041c-0.327-0.014-0.692-0.027-1.095-0.041
				s-0.825-0.024-1.269-0.031s-0.862-0.014-1.258-0.021s-0.747-0.014-1.054-0.021s-0.528-0.01-0.665-0.01h-8.838v-0.082
				c0.082-0.286,0.16-0.641,0.235-1.063c0.074-0.423,0.14-0.948,0.194-1.575c0.054-0.628,0.095-1.374,0.122-2.24
				s0.041-1.879,0.041-3.038v-13.319c0-1.159-0.014-2.172-0.041-3.038c-0.027-0.865-0.068-1.616-0.122-2.25
				c-0.055-0.635-0.12-1.163-0.194-1.586c-0.075-0.423-0.153-0.777-0.235-1.063v-0.082
				C195.941,287.491,197.636,287.484,199.32,287.471z"/>
		</g>
		<g>
			<path fill="#062E3A" d="M10.871,279.246c2.279,0,4.376-0.097,6.289-0.29c1.913-0.193,3.584-0.416,5.014-0.667
				c1.662-0.271,3.178-0.589,4.55-0.957l-0.84,4.695c-0.232-0.02-0.58-0.038-1.043-0.058s-0.981-0.039-1.551-0.058
				c-0.57-0.02-1.169-0.034-1.797-0.044s-1.222-0.02-1.782-0.028c-0.561-0.011-1.058-0.02-1.493-0.029
				c-0.435-0.01-0.749-0.015-0.942-0.015H4.755v-0.116c0.116-0.405,0.227-0.907,0.333-1.507c0.106-0.599,0.198-1.343,0.275-2.232
				c0.077-0.888,0.135-1.946,0.174-3.173c0.039-1.227,0.058-2.662,0.058-4.304v-18.868c0-1.642-0.02-3.077-0.058-4.304
				c-0.039-1.227-0.097-2.29-0.174-3.188c-0.078-0.898-0.169-1.647-0.275-2.246c-0.106-0.599-0.217-1.102-0.333-1.507v-0.116h6.956
				v0.116c-0.116,0.406-0.228,0.909-0.333,1.507c-0.106,0.599-0.193,1.348-0.261,2.246c-0.068,0.898-0.126,1.961-0.174,3.188
				c-0.048,1.227-0.072,2.662-0.072,4.304V279.246z"/>
			<path fill="#062E3A" d="M62.293,281.796v-0.116c0.039-0.096,0.067-0.241,0.087-0.435c0.019-0.192,0.029-0.367,0.029-0.521
				c0-0.599-0.082-1.261-0.246-1.985c-0.165-0.725-0.479-1.628-0.942-2.71l-3.507-7.883c-1.082-0.039-2.521-0.058-4.318-0.058
				s-3.739,0-5.826,0c-1.526,0-3,0-4.42,0c-1.42,0-2.7,0.02-3.84,0.058l-3.333,7.651c-0.29,0.715-0.599,1.498-0.927,2.348
				c-0.329,0.851-0.493,1.71-0.493,2.58c0,0.251,0.019,0.459,0.058,0.623s0.077,0.275,0.116,0.333v0.116h-5.913v-0.116
				c0.348-0.366,0.783-1.019,1.304-1.956c0.521-0.937,1.091-2.111,1.71-3.521l16.607-36.838h2.319l15.738,35.417
				c0.367,0.831,0.749,1.638,1.145,2.42c0.396,0.782,0.768,1.483,1.116,2.101c0.348,0.619,0.657,1.14,0.927,1.565
				c0.271,0.426,0.454,0.696,0.551,0.812v0.116H62.293z M43.512,265.594c1.121,0,2.271-0.004,3.449-0.015
				c1.178-0.009,2.333-0.019,3.463-0.029c1.13-0.009,2.217-0.019,3.261-0.029s1.99-0.024,2.84-0.043l-8.145-18.405l-7.999,18.521
				H43.512z"/>
		</g>
		<g>
			<path fill="#062E3A" d="M255.602,276.927c0,0.213-0.024,0.435-0.072,0.667c-0.049,0.232-0.16,0.425-0.334,0.58
				c-0.869,0.657-1.812,1.261-2.825,1.812c-1.015,0.551-2.111,1.029-3.29,1.435c-1.179,0.406-2.449,0.72-3.812,0.942
				c-1.362,0.222-2.825,0.333-4.391,0.333c-3.517,0-6.725-0.518-9.622-1.551c-2.898-1.033-5.387-2.497-7.464-4.391
				s-3.686-4.169-4.825-6.826c-1.141-2.656-1.71-5.608-1.71-8.854c0-1.835,0.236-3.642,0.71-5.42
				c0.473-1.777,1.164-3.468,2.072-5.072c0.908-1.604,2.028-3.077,3.362-4.42c1.333-1.343,2.854-2.507,4.564-3.493
				s3.594-1.753,5.651-2.304c2.059-0.551,4.285-0.826,6.681-0.826c0.928,0,1.874,0.043,2.841,0.131
				c0.966,0.087,1.922,0.212,2.869,0.376c0.946,0.165,1.859,0.362,2.739,0.594c0.879,0.232,1.714,0.493,2.507,0.783l1.971,5.362
				l-0.231,0.116c-0.754-0.676-1.623-1.304-2.608-1.884s-2.039-1.082-3.159-1.507c-1.121-0.425-2.295-0.758-3.521-1
				c-1.228-0.242-2.469-0.362-3.725-0.362c-2.435,0-4.666,0.381-6.695,1.145c-2.028,0.764-3.772,1.87-5.231,3.319
				s-2.594,3.227-3.405,5.333s-1.218,4.502-1.218,7.188c0,2.957,0.387,5.7,1.159,8.231c0.773,2.531,1.923,4.724,3.449,6.579
				s3.435,3.309,5.725,4.362c2.289,1.054,4.96,1.58,8.014,1.58c1.353,0,2.56-0.106,3.623-0.319c1.063-0.212,1.961-0.478,2.695-0.796
				s1.29-0.667,1.667-1.043c0.376-0.376,0.564-0.719,0.564-1.029v-1.13c0-1.352-0.02-2.521-0.058-3.507
				c-0.039-0.985-0.097-1.84-0.174-2.565s-0.165-1.348-0.261-1.87c-0.098-0.521-0.213-1.004-0.348-1.449v-0.116h6.955v0.116
				c-0.115,0.406-0.227,0.884-0.333,1.435c-0.106,0.551-0.198,1.203-0.275,1.957s-0.135,1.638-0.174,2.652
				c-0.039,1.015-0.058,2.188-0.058,3.521V276.927z"/>
			<path fill="#062E3A" d="M271.766,240.205c2.387-0.019,4.574-0.043,6.565-0.073c1.989-0.029,3.689-0.072,5.101-0.13
				c1.41-0.058,2.366-0.135,2.869-0.232l-1.42,3.855c-0.638-0.174-1.382-0.329-2.231-0.464c-0.734-0.116-1.628-0.227-2.682-0.333
				c-1.053-0.106-2.266-0.16-3.637-0.16c-0.464,0-1.02,0.015-1.667,0.043s-1.271,0.063-1.869,0.102
				c-0.695,0.039-1.401,0.077-2.116,0.116v15.825c1.99-0.019,3.787-0.077,5.392-0.174c1.604-0.096,2.966-0.193,4.086-0.29
				c1.314-0.116,2.474-0.251,3.479-0.406l-0.898,4.203c-1.334-0.174-2.695-0.338-4.087-0.493c-1.198-0.135-2.503-0.256-3.913-0.362
				c-1.41-0.106-2.763-0.16-4.058-0.16v18.173c2.28,0,4.377-0.097,6.29-0.29c1.912-0.193,3.584-0.416,5.014-0.667
				c1.662-0.271,3.179-0.589,4.551-0.957l-0.841,4.695c-0.231-0.02-0.58-0.038-1.043-0.058c-0.464-0.02-0.981-0.039-1.551-0.058
				c-0.57-0.02-1.17-0.034-1.797-0.044c-0.629-0.01-1.223-0.02-1.783-0.028c-0.561-0.011-1.058-0.02-1.492-0.029
				s-0.749-0.015-0.942-0.015h-12.521v-0.116c0.116-0.405,0.227-0.907,0.333-1.507c0.106-0.599,0.198-1.343,0.275-2.232
				c0.077-0.888,0.136-1.946,0.174-3.173c0.039-1.227,0.059-2.662,0.059-4.304v-18.868c0-1.642-0.02-3.077-0.059-4.304
				c-0.038-1.227-0.097-2.29-0.174-3.188s-0.169-1.647-0.275-2.246c-0.106-0.599-0.217-1.102-0.333-1.507v-0.116
				C266.979,240.234,269.379,240.225,271.766,240.205z"/>
		</g>
		<g>
			<path fill="#062E3A" d="M75.14,240.586l24.584,26.16v-16.804c0-1.352-0.016-2.534-0.048-3.544
				c-0.032-1.01-0.08-1.886-0.143-2.625c-0.064-0.74-0.14-1.356-0.227-1.85c-0.088-0.493-0.179-0.907-0.275-1.241v-0.096h4.249
				v0.096c-0.096,0.334-0.183,0.748-0.263,1.241c-0.08,0.494-0.151,1.11-0.215,1.85c-0.064,0.74-0.112,1.615-0.143,2.625
				c-0.032,1.011-0.048,2.192-0.048,3.544v25.349h-0.835l-24.584-26.136v16.326c0,1.353,0.016,2.534,0.047,3.544
				c0.032,1.011,0.08,1.882,0.144,2.614c0.063,0.732,0.135,1.345,0.215,1.838c0.079,0.493,0.167,0.907,0.262,1.241v0.096h-4.249
				v-0.096c0.096-0.334,0.187-0.748,0.274-1.241s0.163-1.106,0.227-1.838c0.063-0.732,0.111-1.603,0.143-2.614
				c0.032-1.01,0.048-2.192,0.048-3.544v-15.539c0-1.352-0.016-2.534-0.048-3.544c-0.032-1.01-0.08-1.886-0.143-2.625
				c-0.064-0.74-0.14-1.356-0.227-1.85c-0.087-0.493-0.179-0.907-0.274-1.241v-0.096H75.14z"/>
			<path fill="#062E3A" d="M141.26,270.804c0,0.175-0.02,0.358-0.059,0.549c-0.041,0.191-0.131,0.35-0.275,0.478
				c-0.715,0.541-1.492,1.038-2.326,1.492c-0.836,0.454-1.738,0.847-2.709,1.182c-0.971,0.334-2.018,0.592-3.139,0.775
				c-1.123,0.183-2.328,0.274-3.617,0.274c-2.896,0-5.537-0.426-7.924-1.277s-4.436-2.056-6.146-3.616
				c-1.71-1.559-3.035-3.433-3.974-5.621c-0.939-2.188-1.408-4.618-1.408-7.292c0-1.512,0.195-3,0.585-4.463
				c0.39-1.464,0.958-2.856,1.707-4.177c0.748-1.32,1.671-2.534,2.769-3.64s2.352-2.065,3.76-2.876s2.959-1.444,4.654-1.897
				s3.527-0.68,5.502-0.68c0.764,0,1.543,0.036,2.338,0.107c0.797,0.071,1.584,0.175,2.363,0.31
				c0.779,0.136,1.531,0.298,2.256,0.489s1.412,0.406,2.064,0.645l1.623,4.416l-0.191,0.095c-0.619-0.557-1.336-1.074-2.146-1.551
				c-0.813-0.478-1.68-0.891-2.602-1.241c-0.924-0.35-1.891-0.625-2.9-0.824c-1.012-0.199-2.033-0.298-3.068-0.298
				c-2.004,0-3.842,0.314-5.514,0.943c-1.67,0.629-3.105,1.54-4.307,2.733c-1.203,1.193-2.137,2.658-2.805,4.392
				c-0.67,1.734-1.004,3.708-1.004,5.919c0,2.435,0.318,4.694,0.955,6.778c0.637,2.085,1.584,3.891,2.84,5.418
				c1.258,1.527,2.83,2.725,4.715,3.592s4.086,1.301,6.6,1.301c1.113,0,2.107-0.087,2.984-0.263
				c0.875-0.175,1.613-0.394,2.219-0.656c0.605-0.263,1.063-0.549,1.373-0.859c0.311-0.311,0.465-0.593,0.465-0.847v-0.931
				c0-1.113-0.016-2.077-0.047-2.888c-0.033-0.812-0.08-1.516-0.145-2.112c-0.063-0.597-0.135-1.11-0.215-1.54
				c-0.078-0.43-0.174-0.827-0.285-1.193v-0.095h5.729v0.095c-0.096,0.334-0.188,0.728-0.275,1.182s-0.162,0.99-0.227,1.611
				s-0.111,1.349-0.143,2.184c-0.033,0.835-0.049,1.802-0.049,2.9V270.804z"/>
			<path fill="#062E3A" d="M173.13,249.942c0-1.352-0.016-2.534-0.048-3.544c-0.032-1.01-0.08-1.886-0.144-2.625
				s-0.135-1.356-0.214-1.85c-0.08-0.493-0.168-0.907-0.263-1.241v-0.096h4.248v0.096c-0.096,0.334-0.187,0.748-0.274,1.241
				c-0.088,0.494-0.159,1.11-0.215,1.85s-0.104,1.615-0.143,2.625c-0.04,1.011-0.061,2.192-0.061,3.544v12.889
				c0,2.275-0.326,4.217-0.979,5.824c-0.652,1.607-1.56,2.924-2.721,3.95c-1.162,1.026-2.554,1.774-4.177,2.244
				s-3.397,0.704-5.323,0.704c-1.925,0-3.72-0.223-5.382-0.668c-1.663-0.445-3.111-1.166-4.345-2.16
				c-1.232-0.995-2.199-2.283-2.899-3.867s-1.051-3.513-1.051-5.788v-13.128c0-1.352-0.016-2.534-0.047-3.544
				c-0.032-1.01-0.08-1.886-0.144-2.625s-0.14-1.356-0.227-1.85c-0.088-0.493-0.18-0.907-0.274-1.241v-0.096h5.729v0.096
				c-0.096,0.334-0.188,0.748-0.275,1.241c-0.087,0.494-0.163,1.11-0.227,1.85s-0.111,1.615-0.143,2.625
				c-0.032,1.011-0.048,2.192-0.048,3.544v13.39c0,1.894,0.282,3.458,0.847,4.69c0.565,1.233,1.309,2.212,2.232,2.936
				c0.922,0.725,1.973,1.229,3.15,1.516c1.178,0.287,2.379,0.43,3.604,0.43c1.225,0,2.426-0.143,3.604-0.43
				c1.178-0.286,2.224-0.791,3.139-1.516c0.915-0.724,1.655-1.702,2.22-2.936c0.565-1.233,0.848-2.796,0.848-4.69V249.942z"/>
			<path fill="#062E3A" d="M208.245,274.813v-0.096c0.031-0.079,0.056-0.199,0.071-0.358c0.016-0.159,0.024-0.302,0.024-0.43
				c0-0.493-0.068-1.038-0.203-1.635c-0.136-0.597-0.394-1.34-0.775-2.232l-2.889-6.492c-0.891-0.032-2.076-0.048-3.557-0.048
				c-1.479,0-3.078,0-4.797,0c-1.258,0-2.471,0-3.641,0c-1.169,0-2.224,0.016-3.162,0.048l-2.745,6.301
				c-0.238,0.589-0.493,1.233-0.764,1.934s-0.405,1.408-0.405,2.124c0,0.207,0.016,0.378,0.047,0.513
				c0.032,0.136,0.063,0.227,0.096,0.274v0.096h-4.869v-0.096c0.286-0.302,0.645-0.839,1.074-1.611
				c0.43-0.771,0.898-1.738,1.408-2.9l13.677-30.337h1.909l12.961,29.167c0.302,0.685,0.616,1.349,0.942,1.993
				s0.633,1.221,0.919,1.73c0.287,0.509,0.541,0.939,0.765,1.289c0.223,0.35,0.373,0.573,0.453,0.668v0.096H208.245z
				 M192.778,261.471c0.923,0,1.869-0.004,2.84-0.012c0.971-0.008,1.922-0.016,2.853-0.024c0.931-0.008,1.826-0.016,2.686-0.024
				c0.859-0.008,1.639-0.02,2.339-0.036l-6.707-15.157l-6.588,15.252H192.778z"/>
		</g>
		<g>
		</g>
	</g>
</g>
<g>
</g>
<g>
</g>
<g>
</g>
<g>
</g>
<g>
</g>
<g>
</g>
</svg>
