<?xml version="1.0" encoding="utf-8"?>
<!-- Generator: Adobe Illustrator 16.0.0, SVG Export Plug-In . SVG Version: 6.00 Build 0)  -->
<!DOCTYPE svg PUBLIC "-//W3C//DTD SVG 1.1//EN" "http://www.w3.org/Graphics/SVG/1.1/DTD/svg11.dtd">
<svg version="1.1" id="Layer_1" xmlns="http://www.w3.org/2000/svg" xmlns:xlink="http://www.w3.org/1999/xlink" x="0px" y="0px"
	 width="91px" height="98.667px" viewBox="0 0 91 98.667" enable-background="new 0 0 91 98.667" xml:space="preserve">
<g>
	<g>
		<path fill="#FFFFFF" d="M65.955,35.712c0.11,1.141-0.16,2.261-0.7,3.21c-0.7,1.21-1.86,2.16-3.31,2.551
			c-0.11,0.02-1.17,0.31-1.66,0.449c0.67,2.5,2.45,9.15,2.51,9.391c0.17,0.64,0.22,1.279,0.16,1.91c0.24,2.59-1.42,5.06-4.02,5.76
			c-2.91,0.78-5.89-0.94-6.67-3.851c-0.08-0.29-2.77-10.33-2.77-10.33s-11.57,3.101-11.89,3.19c-1.45,0.39-2.93,0.14-4.14-0.55
			c-1.2-0.7-2.15-1.86-2.54-3.311c-0.16-0.609-8.22-30.659-8.38-31.27c-0.17-0.65-0.22-1.3-0.16-1.92
			c-0.11-1.15,0.16-2.26,0.71-3.22c0.69-1.221,1.86-2.15,3.31-2.551c2.9-0.77,5.89,0.95,6.67,3.86l6.97,26.03
			c0,0,5.11-1.36,6.38-1.7c-0.68-2.521-2.5-9.311-2.57-9.57c-0.17-0.63-0.22-1.26-0.16-1.88c-0.11-1.16,0.16-2.3,0.71-3.26
			c0.7-1.2,1.86-2.14,3.31-2.53c0.14-0.04,7.05-1.89,7.19-1.93c1.45-0.391,2.93-0.15,4.13,0.54c1.21,0.7,2.16,1.859,2.55,3.31
			c0.17,0.63,0.22,1.26,0.16,1.88c0.11,1.16-0.16,2.301-0.71,3.261c-0.7,1.22-1.86,2.149-3.31,2.54
			c-0.11,0.029-1.17,0.319-1.66,0.449l1.14,4.28c0,0,1.78-0.479,1.92-0.52c1.45-0.381,2.92-0.15,4.13,0.55
			c1.21,0.689,2.16,1.85,2.54,3.3C65.975,34.433,66.024,35.082,65.955,35.712z"/>
	</g>
	<g>
		<g>
			<path fill="#FFFFFF" d="M40.049,34.06c0,0,6.072-1.621,6.623-1.77c-0.078-0.288-2.732-10.191-2.814-10.497
				c-0.389-1.453-0.146-2.931,0.551-4.138s1.857-2.146,3.311-2.535c0.137-0.037,7.047-1.889,7.182-1.926
				c1.455-0.389,2.93-0.156,4.137,0.541s2.154,1.855,2.545,3.309c0.389,1.453,0.146,2.93-0.551,4.139
				c-0.695,1.215-1.855,2.154-3.309,2.544c-0.135,0.036-1.912,0.513-1.912,0.513l1.396,5.211c0,0,1.777-0.477,1.912-0.514
				c1.453-0.389,2.928-0.156,4.135,0.541c1.209,0.697,2.156,1.855,2.545,3.309c0.391,1.453,0.148,2.93-0.549,4.137
				s-1.855,2.156-3.309,2.545c-0.137,0.037-1.912,0.514-1.912,0.514s2.688,10.029,2.768,10.328c0.779,2.906-0.955,5.895-3.861,6.672
				c-2.908,0.779-5.893-0.943-6.672-3.851c-0.076-0.29-2.766-10.328-2.766-10.328s-11.578,3.103-11.893,3.187
				c-1.453,0.389-2.93,0.146-4.137-0.551c-1.209-0.695-2.156-1.854-2.545-3.307c-0.164-0.612-8.217-30.66-8.381-31.273
				c-0.389-1.453-0.146-2.93,0.551-4.137c0.695-1.215,1.855-2.154,3.309-2.545c2.906-0.779,5.893,0.945,6.674,3.859L40.049,34.06z"
				/>
		</g>
	</g>
	<g opacity="0.2">
		<g>
			<path fill="#FFFFFF" d="M40.049,34.06c0,0,6.072-1.621,6.623-1.77c-0.078-0.288-2.732-10.191-2.814-10.497
				c-0.389-1.453-0.146-2.931,0.551-4.138s1.857-2.146,3.311-2.535c0.137-0.037,7.047-1.889,7.182-1.926
				c1.455-0.389,2.93-0.156,4.137,0.541s2.154,1.855,2.545,3.309c0.389,1.453,0.146,2.93-0.551,4.139
				c-0.695,1.215-1.855,2.154-3.309,2.544c-0.135,0.036-1.912,0.513-1.912,0.513l1.396,5.211c0,0,1.777-0.477,1.912-0.514
				c1.453-0.389,2.928-0.156,4.135,0.541c1.209,0.697,2.156,1.855,2.545,3.309c0.391,1.453,0.148,2.93-0.549,4.137
				s-1.855,2.156-3.309,2.545c-0.137,0.037-1.912,0.514-1.912,0.514s2.688,10.029,2.768,10.328c0.779,2.906-0.955,5.895-3.861,6.672
				c-2.908,0.779-5.893-0.943-6.672-3.851c-0.076-0.29-2.766-10.328-2.766-10.328s-11.578,3.103-11.893,3.187
				c-1.453,0.389-2.93,0.146-4.137-0.551c-1.209-0.695-2.156-1.854-2.545-3.307c-0.164-0.612-8.217-30.66-8.381-31.273
				c-0.389-1.453-0.146-2.93,0.551-4.137c0.695-1.215,1.855-2.154,3.309-2.545c2.906-0.779,5.893,0.945,6.674,3.859L40.049,34.06z"
				/>
		</g>
	</g>
	<g opacity="0.7">
		<g>
			<path fill="#FFFFFF" d="M65.254,36.922c-0.7,1.21-1.86,2.16-3.31,2.551c-0.14,0.029-1.91,0.51-1.91,0.51s2.68,10.03,2.76,10.33
				c0.78,2.899-0.95,5.89-3.86,6.67s-5.89-0.94-6.67-3.851c-0.08-0.29-2.77-10.33-2.77-10.33s-0.35,0.091-0.92,0.25l-0.02-0.069
				c-0.41,0.13-0.81,0.26-1.21,0.39c-3.36,0.91-9.51,2.55-9.74,2.62c-1.45,0.39-2.93,0.14-4.14-0.55c-0.29-0.17-0.56-0.36-0.81-0.58
				l0.26,0.17l0.28,0.18c0.07,0.04,0.19,0.08,0.28,0.12l0.58,0.25c0.4,0.12,0.82,0.22,1.22,0.26c0.42-0.02,0.8,0.07,1.24-0.06
				l0.64-0.12c0.16-0.03,0.41-0.11,0.6-0.17l1.25-0.37c3.34-0.979,10.606-3.434,10.606-3.434l2.544,9.724
				c0.11,0.37,0.21,0.79,0.33,1.13c0.15,0.311,0.22,0.66,0.42,0.95c0.21,0.28,0.34,0.6,0.61,0.82l0.36,0.37
				c0.12,0.119,0.28,0.199,0.42,0.31c0.14,0.09,0.27,0.2,0.43,0.28l0.47,0.2c0.3,0.17,0.65,0.189,0.98,0.279
				c0.33,0.09,0.62,0.03,0.93,0.07c0.16,0.01,0.38-0.06,0.57-0.08l0.3-0.05l0.15-0.03l0.07-0.01h0.01c0.3-0.13,0.63-0.23,0.92-0.38
				c0.27-0.2,0.59-0.33,0.82-0.57c0.24-0.25,0.52-0.45,0.68-0.75l0.29-0.41c0.09-0.14,0.14-0.3,0.22-0.45
				c0.06-0.159,0.15-0.3,0.19-0.47l0.11-0.49c0.12-0.33,0.05-0.609,0.09-0.92c0.03-0.13-0.01-0.34-0.04-0.54l-0.11-0.59l-0.01-0.069
				v-0.04h-0.01v-0.011c0-0.01,0-0.01,0-0.01l-0.02-0.07l-0.08-0.29l-0.16-0.579l-2.54-9.28l-0.25-0.94l0.94-0.25l1.27-0.35
				l0.63-0.17l0.51-0.2c0.35-0.09,0.63-0.33,0.94-0.51c0.3-0.2,0.47-0.42,0.74-0.66l0.38-0.53l0.15-0.21l0.01-0.01l0.01-0.03
				l0.03-0.07l0.05-0.119l0.23-0.49c0.06-0.17,0.08-0.351,0.13-0.521c0.12-0.359,0.08-0.67,0.12-0.979
				c0.04-0.13-0.03-0.391-0.06-0.59l-0.08-0.54l-0.01-0.03c0-0.01,0-0.01,0-0.02l-0.02-0.03l-0.02-0.061l-0.05-0.13l-0.09-0.25
				c-0.07-0.16-0.11-0.34-0.22-0.49c-0.2-0.289-0.37-0.63-0.61-0.829c-0.11-0.12-0.19-0.24-0.33-0.37l-0.54-0.38l-0.19-0.141h-0.01
				v-0.01h-0.02l-0.03-0.021l-0.06-0.02l-0.12-0.06l-0.49-0.23c-0.34-0.08-0.71-0.21-1.03-0.22c-0.33,0-0.59-0.09-1.08,0.02
				l-0.32,0.061l-0.16,0.02l-0.06,0.01h-0.02l-0.07,0.021h-0.01l-0.54,0.14l-1.28,0.34l-0.94,0.25l-0.25-0.93l-1.37-5.22l-0.25-0.91
				l0.92-0.25c0.89-0.25,1.95-0.47,2.61-0.76c0.2-0.04,0.35-0.181,0.52-0.28c0.15-0.11,0.37-0.19,0.48-0.32
				c0.26-0.25,0.54-0.43,0.82-0.88l0.21-0.29l0.05-0.08l0.06-0.13l0.26-0.55c0.09-0.18,0.1-0.38,0.16-0.58
				c0.05-0.189,0.12-0.39,0.11-0.56c0.01-0.181,0.02-0.36,0.04-0.54c0.01-0.2-0.06-0.46-0.09-0.69l-0.05-0.36v-0.039l-0.01-0.011
				l-0.01-0.02l-0.05-0.15l-0.21-0.56c-0.05-0.2-0.2-0.351-0.3-0.53c-0.11-0.16-0.19-0.37-0.33-0.479
				c-0.13-0.131-0.25-0.271-0.37-0.41c-0.11-0.15-0.36-0.29-0.54-0.431l-0.29-0.21l-0.02-0.02c-0.01-0.01-0.01-0.01-0.02-0.01
				l-0.03-0.011l-0.14-0.069l-0.55-0.261c-0.19-0.069-0.4-0.1-0.59-0.159c-0.2-0.061-0.4-0.11-0.58-0.101
				c-0.19-0.01-0.37-0.02-0.56-0.04c-0.22,0.021-0.47,0.061-0.7,0.09l-0.36,0.061h-0.01l-0.04,0.01h-0.01l-0.04,0.01l-0.17,0.04
				l-0.7,0.181l-2.66,0.58c1.88-0.511,3.9-1.051,3.98-1.07c1.45-0.391,2.93-0.15,4.13,0.54c1.21,0.7,2.16,1.859,2.55,3.31
				c0.39,1.45,0.14,2.931-0.55,4.141c-0.7,1.22-1.86,2.149-3.31,2.54c-0.14,0.04-1.91,0.52-1.91,0.52l1.39,5.21
				c0,0,1.78-0.479,1.92-0.52c1.45-0.381,2.92-0.15,4.13,0.55c1.21,0.689,2.16,1.85,2.54,3.3
				C66.195,34.242,65.945,35.712,65.254,36.922z"/>
		</g>
	</g>
</g>
<g>
	<g>
		<path fill="#FFFFFF" d="M29.31,90.258c0,0.332,0.005,0.622,0.015,0.87s0.021,0.462,0.035,0.642s0.031,0.33,0.053,0.451
			s0.044,0.223,0.067,0.305v0.023h-1.406v-0.023c0.023-0.082,0.046-0.184,0.067-0.305s0.04-0.271,0.056-0.451
			s0.027-0.394,0.035-0.642s0.012-0.538,0.012-0.87v-3.814c0-0.332-0.004-0.622-0.012-0.87s-0.02-0.463-0.035-0.645
			s-0.034-0.333-0.056-0.454s-0.044-0.223-0.067-0.305v-0.023c0.324,0,0.652-0.001,0.984-0.003s0.654-0.004,0.967-0.006
			s0.609-0.006,0.891-0.012s0.535-0.012,0.762-0.018s0.418-0.014,0.574-0.023s0.268-0.021,0.334-0.032l-0.287,0.779
			c-0.129-0.035-0.279-0.066-0.451-0.094c-0.148-0.023-0.329-0.046-0.542-0.067s-0.458-0.032-0.735-0.032
			c-0.094,0-0.211,0.003-0.352,0.009s-0.279,0.013-0.416,0.021c-0.156,0.008-0.32,0.016-0.492,0.023v2.959
			c0.402-0.004,0.771-0.016,1.107-0.035s0.625-0.039,0.867-0.059c0.281-0.023,0.535-0.051,0.762-0.082l-0.176,0.85
			c-0.293-0.035-0.59-0.068-0.891-0.1c-0.258-0.027-0.535-0.052-0.832-0.073s-0.576-0.032-0.838-0.032V90.258z"/>
		<path fill="#FFFFFF" d="M37.496,84.006c0.652,0,1.255,0.106,1.808,0.319s1.03,0.512,1.433,0.896s0.717,0.847,0.943,1.386
			s0.34,1.135,0.34,1.787c0,0.371-0.043,0.736-0.129,1.096s-0.212,0.699-0.378,1.02s-0.37,0.616-0.612,0.888
			s-0.519,0.506-0.829,0.703s-0.653,0.352-1.028,0.463s-0.779,0.167-1.213,0.167c-0.652,0-1.255-0.104-1.808-0.313
			s-1.03-0.505-1.433-0.888s-0.717-0.843-0.943-1.38s-0.34-1.134-0.34-1.79c0-0.371,0.043-0.736,0.129-1.096
			s0.212-0.701,0.378-1.025s0.369-0.622,0.609-0.894s0.516-0.507,0.826-0.706s0.654-0.354,1.031-0.466S37.062,84.006,37.496,84.006z
			 M37.83,92.203c0.434,0,0.83-0.078,1.189-0.234s0.669-0.383,0.929-0.68s0.462-0.659,0.606-1.087s0.217-0.913,0.217-1.456
			c0-0.602-0.069-1.159-0.208-1.673s-0.345-0.959-0.618-1.336s-0.614-0.672-1.022-0.885s-0.884-0.319-1.427-0.319
			c-0.434,0-0.83,0.077-1.189,0.231s-0.669,0.378-0.929,0.671s-0.462,0.652-0.606,1.078s-0.217,0.91-0.217,1.453
			c0,0.598,0.068,1.155,0.205,1.673s0.342,0.966,0.615,1.345s0.615,0.677,1.025,0.894S37.287,92.203,37.83,92.203z"/>
		<path fill="#FFFFFF" d="M44.574,90.258c0,0.332,0.005,0.622,0.015,0.87s0.021,0.462,0.035,0.642s0.031,0.33,0.053,0.451
			s0.044,0.223,0.067,0.305v0.023h-1.406v-0.023c0.023-0.082,0.046-0.184,0.067-0.305s0.04-0.271,0.056-0.451
			s0.027-0.394,0.035-0.642s0.012-0.538,0.012-0.87v-3.814c0-0.332-0.004-0.622-0.012-0.87s-0.02-0.463-0.035-0.645
			s-0.034-0.333-0.056-0.454s-0.044-0.223-0.067-0.305v-0.023c0.078,0.008,0.16,0.016,0.246,0.023
			c0.074,0.008,0.157,0.013,0.249,0.015s0.187,0.003,0.284,0.003c0.152,0,0.358-0.019,0.618-0.056s0.591-0.056,0.993-0.056
			c0.375,0,0.722,0.051,1.04,0.152s0.595,0.25,0.829,0.445s0.417,0.435,0.548,0.718s0.196,0.604,0.196,0.964
			c0,0.281-0.036,0.542-0.108,0.782s-0.174,0.458-0.305,0.653s-0.288,0.368-0.472,0.519s-0.389,0.276-0.615,0.378l2.057,2.889
			c0.102,0.145,0.196,0.27,0.284,0.375s0.172,0.195,0.252,0.27s0.157,0.136,0.231,0.185s0.15,0.089,0.229,0.12v0.023h-1.693
			c-0.012-0.074-0.05-0.173-0.114-0.296s-0.14-0.245-0.226-0.366l-2.074-2.924c-0.191,0.02-0.389,0.029-0.592,0.029
			s-0.41-0.018-0.621-0.053V90.258z M44.574,88.482c0.383,0.07,0.733,0.08,1.052,0.029s0.592-0.162,0.82-0.334
			s0.406-0.405,0.533-0.7s0.19-0.653,0.19-1.075c0-0.293-0.033-0.559-0.1-0.797s-0.165-0.44-0.296-0.606s-0.296-0.295-0.495-0.387
			s-0.432-0.138-0.697-0.138c-0.168,0-0.314,0.007-0.439,0.021s-0.23,0.028-0.316,0.044c-0.102,0.02-0.186,0.041-0.252,0.064V88.482
			z"/>
		<path fill="#FFFFFF" d="M57.822,91.564c0,0.043-0.005,0.088-0.015,0.135s-0.032,0.086-0.067,0.117
			c-0.176,0.133-0.366,0.255-0.571,0.366s-0.427,0.208-0.665,0.29s-0.495,0.146-0.771,0.19s-0.571,0.067-0.888,0.067
			c-0.711,0-1.359-0.104-1.945-0.313s-1.089-0.505-1.509-0.888s-0.745-0.843-0.976-1.38s-0.346-1.134-0.346-1.79
			c0-0.371,0.048-0.736,0.144-1.096s0.235-0.701,0.419-1.025s0.41-0.622,0.68-0.894s0.577-0.507,0.923-0.706
			s0.727-0.354,1.143-0.466s0.866-0.167,1.351-0.167c0.188,0,0.379,0.009,0.574,0.026s0.389,0.043,0.58,0.076
			s0.376,0.073,0.554,0.12s0.347,0.1,0.507,0.158l0.398,1.084l-0.047,0.023c-0.152-0.137-0.328-0.264-0.527-0.381
			s-0.412-0.219-0.639-0.305s-0.464-0.153-0.712-0.202s-0.499-0.073-0.753-0.073c-0.492,0-0.943,0.077-1.354,0.231
			s-0.763,0.378-1.058,0.671s-0.524,0.652-0.688,1.078s-0.246,0.91-0.246,1.453c0,0.598,0.078,1.152,0.234,1.664
			s0.389,0.955,0.697,1.33s0.694,0.669,1.157,0.882s1.003,0.319,1.62,0.319c0.273,0,0.518-0.021,0.732-0.064
			s0.396-0.097,0.545-0.161s0.261-0.135,0.337-0.211s0.114-0.146,0.114-0.208v-0.229c0-0.273-0.004-0.51-0.012-0.709
			s-0.02-0.372-0.035-0.519s-0.033-0.272-0.053-0.378s-0.043-0.203-0.07-0.293v-0.023h1.406v0.023
			c-0.023,0.082-0.046,0.179-0.067,0.29s-0.04,0.243-0.056,0.396s-0.027,0.331-0.035,0.536s-0.012,0.442-0.012,0.712V91.564z"/>
		<path fill="#FFFFFF" d="M60.79,84.141c0.482-0.004,0.925-0.009,1.327-0.015s0.746-0.015,1.031-0.026s0.479-0.027,0.58-0.047
			l-0.287,0.779c-0.129-0.035-0.279-0.066-0.451-0.094c-0.148-0.023-0.329-0.046-0.542-0.067s-0.458-0.032-0.735-0.032
			c-0.094,0-0.206,0.003-0.337,0.009s-0.257,0.013-0.378,0.021c-0.141,0.008-0.283,0.016-0.428,0.023v3.199
			c0.402-0.004,0.766-0.016,1.09-0.035s0.6-0.039,0.826-0.059c0.266-0.023,0.5-0.051,0.703-0.082l-0.182,0.85
			c-0.27-0.035-0.545-0.068-0.826-0.1c-0.242-0.027-0.506-0.052-0.791-0.073s-0.559-0.032-0.82-0.032v3.674
			c0.461,0,0.885-0.02,1.271-0.059s0.725-0.084,1.014-0.135c0.336-0.055,0.643-0.119,0.92-0.193l-0.17,0.949
			c-0.047-0.004-0.117-0.008-0.211-0.012s-0.198-0.008-0.313-0.012s-0.236-0.007-0.363-0.009s-0.247-0.004-0.36-0.006
			s-0.214-0.004-0.302-0.006s-0.151-0.003-0.19-0.003h-2.531v-0.023c0.023-0.082,0.046-0.184,0.067-0.305s0.04-0.271,0.056-0.451
			s0.027-0.394,0.035-0.642s0.012-0.538,0.012-0.87v-3.814c0-0.332-0.004-0.622-0.012-0.87s-0.02-0.463-0.035-0.645
			s-0.034-0.333-0.056-0.454s-0.044-0.223-0.067-0.305v-0.023C59.822,84.146,60.307,84.145,60.79,84.141z"/>
	</g>
	<g>
		<path fill="#FFFFFF" d="M6.818,81.785c0.653,0,1.253-0.027,1.802-0.083c0.547-0.056,1.026-0.119,1.436-0.19
			c0.476-0.078,0.91-0.169,1.303-0.274l-0.24,1.345c-0.066-0.006-0.166-0.011-0.299-0.017s-0.281-0.011-0.444-0.017
			s-0.335-0.01-0.515-0.013s-0.35-0.005-0.51-0.008c-0.161-0.003-0.304-0.006-0.428-0.009c-0.125-0.003-0.215-0.004-0.27-0.004
			H5.067v-0.033c0.033-0.116,0.064-0.26,0.095-0.432s0.057-0.385,0.079-0.639c0.022-0.255,0.039-0.558,0.05-0.909
			s0.017-0.763,0.017-1.233v-5.403c0-0.471-0.006-0.881-0.017-1.232s-0.027-0.656-0.05-0.913c-0.022-0.258-0.049-0.472-0.079-0.644
			S5.1,70.762,5.067,70.646v-0.033h1.992v0.033c-0.033,0.116-0.065,0.26-0.096,0.432s-0.056,0.386-0.075,0.644
			c-0.02,0.257-0.036,0.562-0.05,0.913s-0.021,0.762-0.021,1.232V81.785z"/>
		<path fill="#FFFFFF" d="M21.545,82.516v-0.033c0.011-0.027,0.019-0.069,0.024-0.125c0.006-0.055,0.009-0.104,0.009-0.148
			c0-0.172-0.024-0.361-0.071-0.569c-0.047-0.207-0.137-0.466-0.27-0.776l-1.005-2.258c-0.31-0.011-0.722-0.016-1.236-0.016
			s-1.07,0-1.668,0c-0.438,0-0.859,0-1.267,0c-0.406,0-0.773,0.005-1.1,0.016l-0.954,2.191c-0.084,0.205-0.172,0.43-0.266,0.673
			c-0.095,0.243-0.142,0.489-0.142,0.739c0,0.071,0.006,0.131,0.017,0.178s0.022,0.079,0.033,0.096v0.033h-1.693v-0.033
			c0.1-0.105,0.225-0.292,0.373-0.561c0.15-0.269,0.313-0.604,0.49-1.008l4.756-10.551h0.664l4.508,10.144
			c0.105,0.238,0.215,0.469,0.328,0.693c0.113,0.224,0.22,0.425,0.319,0.602s0.188,0.326,0.266,0.448s0.13,0.199,0.157,0.232v0.033
			H21.545z M16.167,77.875c0.32,0,0.649-0.001,0.987-0.004s0.668-0.005,0.992-0.008c0.323-0.003,0.635-0.006,0.934-0.009
			s0.57-0.007,0.813-0.013l-2.332-5.271l-2.291,5.304H16.167z"/>
	</g>
	<g>
		<path fill="#FFFFFF" d="M76.907,81.121c0,0.061-0.007,0.125-0.021,0.191s-0.046,0.121-0.095,0.166
			c-0.25,0.188-0.52,0.36-0.81,0.519c-0.291,0.157-0.604,0.294-0.942,0.411c-0.338,0.115-0.701,0.206-1.092,0.27
			c-0.39,0.063-0.809,0.096-1.258,0.096c-1.007,0-1.926-0.148-2.756-0.444s-1.542-0.716-2.137-1.258s-1.056-1.194-1.383-1.955
			c-0.326-0.761-0.489-1.606-0.489-2.536c0-0.525,0.067-1.043,0.203-1.552s0.334-0.993,0.594-1.452
			c0.26-0.46,0.581-0.882,0.963-1.267s0.817-0.718,1.308-1c0.489-0.282,1.029-0.502,1.618-0.66c0.59-0.157,1.228-0.236,1.913-0.236
			c0.266,0,0.537,0.013,0.814,0.037c0.276,0.025,0.55,0.062,0.821,0.108s0.532,0.104,0.784,0.17s0.491,0.141,0.719,0.225
			l0.564,1.535l-0.066,0.033c-0.217-0.193-0.465-0.373-0.748-0.539c-0.281-0.166-0.583-0.311-0.904-0.432
			c-0.321-0.122-0.657-0.218-1.009-0.287s-0.707-0.104-1.066-0.104c-0.697,0-1.337,0.109-1.917,0.328
			c-0.582,0.219-1.081,0.535-1.499,0.95s-0.743,0.924-0.976,1.527s-0.348,1.289-0.348,2.059c0,0.847,0.11,1.633,0.332,2.357
			c0.221,0.725,0.55,1.353,0.987,1.884s0.983,0.948,1.64,1.25c0.655,0.302,1.421,0.452,2.295,0.452c0.388,0,0.733-0.03,1.037-0.091
			c0.305-0.062,0.563-0.138,0.772-0.229c0.21-0.092,0.369-0.191,0.478-0.299c0.107-0.108,0.162-0.206,0.162-0.295V80.73
			c0-0.387-0.006-0.722-0.018-1.004c-0.011-0.282-0.027-0.527-0.049-0.734c-0.022-0.208-0.048-0.387-0.075-0.535
			c-0.027-0.15-0.061-0.288-0.1-0.416v-0.033h1.992v0.033c-0.033,0.117-0.065,0.254-0.096,0.411
			c-0.03,0.158-0.057,0.345-0.079,0.561c-0.021,0.216-0.038,0.469-0.049,0.76c-0.012,0.29-0.018,0.626-0.018,1.009V81.121z"/>
		<path fill="#FFFFFF" d="M81.537,70.604c0.684-0.005,1.31-0.012,1.88-0.021c0.57-0.008,1.057-0.021,1.461-0.037
			s0.678-0.039,0.821-0.066l-0.406,1.104c-0.183-0.051-0.396-0.095-0.639-0.133c-0.211-0.033-0.467-0.065-0.769-0.096
			s-0.648-0.046-1.042-0.046c-0.133,0-0.291,0.004-0.477,0.013c-0.186,0.008-0.364,0.018-0.535,0.029
			c-0.199,0.011-0.401,0.021-0.606,0.033v4.531c0.57-0.005,1.085-0.021,1.544-0.049c0.459-0.028,0.85-0.056,1.17-0.084
			c0.377-0.033,0.709-0.071,0.996-0.115l-0.257,1.203c-0.382-0.05-0.772-0.097-1.171-0.141c-0.343-0.039-0.716-0.074-1.12-0.104
			s-0.791-0.046-1.162-0.046v5.205c0.653,0,1.253-0.027,1.802-0.083c0.547-0.056,1.026-0.119,1.436-0.19
			c0.476-0.078,0.91-0.169,1.303-0.274l-0.24,1.345c-0.066-0.006-0.166-0.011-0.299-0.017s-0.281-0.011-0.444-0.017
			s-0.335-0.01-0.515-0.013s-0.35-0.005-0.51-0.008c-0.161-0.003-0.304-0.006-0.428-0.009c-0.125-0.003-0.215-0.004-0.27-0.004
			h-3.586v-0.033c0.033-0.116,0.064-0.26,0.095-0.432s0.057-0.385,0.079-0.639c0.022-0.255,0.039-0.558,0.05-0.909
			s0.017-0.763,0.017-1.233v-5.403c0-0.471-0.006-0.881-0.017-1.232s-0.027-0.656-0.05-0.913c-0.022-0.258-0.049-0.472-0.079-0.644
			s-0.062-0.315-0.095-0.432v-0.033C80.166,70.612,80.854,70.609,81.537,70.604z"/>
	</g>
	<g>
		<path fill="#FFFFFF" d="M25.224,70.713l7.041,7.492v-4.813c0-0.388-0.005-0.726-0.014-1.016c-0.009-0.289-0.022-0.539-0.041-0.752
			c-0.019-0.211-0.04-0.388-0.065-0.529c-0.024-0.142-0.051-0.26-0.078-0.355v-0.027h1.217v0.027
			c-0.027,0.096-0.053,0.214-0.075,0.355s-0.043,0.318-0.062,0.529c-0.019,0.213-0.032,0.463-0.041,0.752
			c-0.009,0.29-0.014,0.628-0.014,1.016v7.26h-0.239l-7.041-7.485v4.676c0,0.388,0.005,0.726,0.014,1.015
			c0.009,0.29,0.022,0.539,0.041,0.749s0.039,0.385,0.062,0.526s0.048,0.26,0.075,0.355v0.027h-1.217v-0.027
			c0.027-0.096,0.054-0.214,0.079-0.355c0.024-0.142,0.046-0.316,0.064-0.526s0.032-0.459,0.041-0.749
			c0.009-0.289,0.014-0.627,0.014-1.015v-4.45c0-0.388-0.005-0.726-0.014-1.016c-0.009-0.289-0.022-0.539-0.041-0.752
			c-0.019-0.211-0.04-0.388-0.064-0.529c-0.025-0.142-0.052-0.26-0.079-0.355v-0.027H25.224z"/>
		<path fill="#FFFFFF" d="M44.161,79.367c0,0.05-0.006,0.103-0.017,0.157c-0.012,0.055-0.038,0.101-0.079,0.137
			c-0.205,0.155-0.427,0.298-0.667,0.427c-0.238,0.131-0.497,0.243-0.775,0.339s-0.578,0.17-0.898,0.222
			c-0.322,0.053-0.667,0.079-1.036,0.079c-0.829,0-1.586-0.122-2.27-0.366c-0.684-0.243-1.271-0.589-1.761-1.035
			c-0.489-0.446-0.869-0.983-1.138-1.609c-0.269-0.627-0.403-1.323-0.403-2.089c0-0.433,0.056-0.859,0.168-1.278
			c0.111-0.419,0.274-0.818,0.488-1.196s0.479-0.726,0.793-1.042c0.314-0.317,0.674-0.592,1.076-0.824
			c0.404-0.232,0.848-0.414,1.334-0.543c0.484-0.131,1.01-0.195,1.575-0.195c0.219,0,0.442,0.01,0.67,0.031
			c0.228,0.02,0.453,0.05,0.677,0.088c0.224,0.039,0.438,0.086,0.646,0.141c0.207,0.055,0.404,0.116,0.591,0.185l0.465,1.265
			l-0.055,0.027c-0.178-0.159-0.383-0.308-0.615-0.444s-0.48-0.255-0.745-0.355s-0.541-0.179-0.83-0.235
			c-0.29-0.058-0.583-0.086-0.879-0.086c-0.574,0-1.101,0.09-1.579,0.27c-0.479,0.181-0.89,0.441-1.233,0.783
			c-0.345,0.342-0.612,0.761-0.804,1.258s-0.287,1.062-0.287,1.695c0,0.697,0.091,1.345,0.273,1.941s0.453,1.114,0.813,1.552
			s0.811,0.78,1.35,1.028c0.541,0.249,1.171,0.373,1.891,0.373c0.319,0,0.604-0.025,0.854-0.075s0.463-0.112,0.636-0.188
			c0.173-0.074,0.305-0.156,0.393-0.246c0.09-0.088,0.134-0.169,0.134-0.242v-0.267c0-0.319-0.005-0.595-0.014-0.827
			s-0.022-0.434-0.041-0.605c-0.019-0.17-0.039-0.317-0.062-0.44s-0.05-0.237-0.082-0.342v-0.027h1.641v0.027
			c-0.027,0.096-0.054,0.208-0.078,0.339c-0.025,0.129-0.047,0.283-0.065,0.461s-0.032,0.387-0.041,0.625
			c-0.009,0.24-0.014,0.517-0.014,0.831V79.367z"/>
		<path fill="#FFFFFF" d="M53.289,73.393c0-0.388-0.005-0.726-0.014-1.016c-0.009-0.289-0.022-0.539-0.041-0.752
			c-0.019-0.211-0.039-0.388-0.062-0.529s-0.048-0.26-0.075-0.355v-0.027h1.217v0.027c-0.027,0.096-0.054,0.214-0.079,0.355
			c-0.024,0.142-0.045,0.318-0.061,0.529c-0.017,0.213-0.03,0.463-0.041,0.752c-0.012,0.29-0.018,0.628-0.018,1.016v3.691
			c0,0.651-0.094,1.208-0.28,1.668s-0.446,0.838-0.779,1.131c-0.333,0.295-0.731,0.509-1.196,0.643
			c-0.465,0.135-0.973,0.202-1.524,0.202s-1.065-0.063-1.542-0.191c-0.476-0.128-0.891-0.334-1.244-0.618
			c-0.353-0.285-0.63-0.654-0.83-1.107c-0.2-0.454-0.301-1.007-0.301-1.658v-3.76c0-0.388-0.005-0.726-0.014-1.016
			c-0.009-0.289-0.022-0.539-0.041-0.752c-0.019-0.211-0.04-0.388-0.064-0.529c-0.025-0.142-0.052-0.26-0.079-0.355v-0.027h1.641
			v0.027c-0.027,0.096-0.054,0.214-0.079,0.355c-0.024,0.142-0.046,0.318-0.064,0.529c-0.019,0.213-0.032,0.463-0.041,0.752
			c-0.009,0.29-0.014,0.628-0.014,1.016v3.835c0,0.542,0.081,0.99,0.242,1.343c0.162,0.354,0.375,0.634,0.64,0.842
			c0.265,0.207,0.565,0.352,0.902,0.434s0.682,0.123,1.032,0.123s0.695-0.041,1.032-0.123s0.637-0.227,0.899-0.434
			c0.262-0.208,0.474-0.488,0.635-0.842c0.162-0.353,0.243-0.801,0.243-1.343V73.393z"/>
		<path fill="#FFFFFF" d="M63.345,80.516v-0.027c0.009-0.022,0.016-0.057,0.021-0.103s0.007-0.087,0.007-0.123
			c0-0.142-0.02-0.298-0.058-0.468c-0.039-0.172-0.113-0.385-0.223-0.64l-0.827-1.859c-0.255-0.009-0.595-0.014-1.019-0.014
			s-0.882,0-1.374,0c-0.36,0-0.708,0-1.042,0c-0.336,0-0.638,0.005-0.906,0.014l-0.786,1.805c-0.068,0.169-0.142,0.354-0.219,0.554
			s-0.116,0.403-0.116,0.608c0,0.06,0.005,0.108,0.014,0.147c0.009,0.038,0.019,0.064,0.027,0.078v0.027H55.45v-0.027
			c0.082-0.087,0.185-0.24,0.308-0.461c0.123-0.222,0.258-0.498,0.403-0.831l3.917-8.688h0.547l3.712,8.354
			c0.087,0.196,0.177,0.387,0.27,0.57c0.094,0.186,0.182,0.351,0.264,0.496s0.155,0.269,0.219,0.369s0.107,0.164,0.13,0.191v0.027
			H63.345z M58.916,76.694c0.265,0,0.535-0.001,0.813-0.003c0.278-0.003,0.551-0.005,0.816-0.008
			c0.268-0.002,0.523-0.004,0.77-0.006c0.246-0.003,0.47-0.006,0.67-0.011l-1.921-4.341l-1.887,4.368H58.916z"/>
	</g>
	<g>
	</g>
</g>
</svg>
