<?xml version="1.0" encoding="utf-8"?>
<!-- Generator: Adobe Illustrator 16.0.0, SVG Export Plug-In . SVG Version: 6.00 Build 0)  -->
<!DOCTYPE svg PUBLIC "-//W3C//DTD SVG 1.1//EN" "http://www.w3.org/Graphics/SVG/1.1/DTD/svg11.dtd">
<svg version="1.1" id="Layer_3" xmlns="http://www.w3.org/2000/svg" xmlns:xlink="http://www.w3.org/1999/xlink" x="0px" y="0px"
	 width="55.333px" height="65px" viewBox="0 0 55.333 65" enable-background="new 0 0 55.333 65" xml:space="preserve">
<g>
	<g>
		<path fill="#193B69" d="M27.738,45.301c-12.015,0-21.788-9.771-21.788-21.781c0-12.012,9.773-21.784,21.788-21.784
			c12.01,0,21.777,9.772,21.777,21.784C49.515,35.531,39.748,45.301,27.738,45.301L27.738,45.301z M27.738,6.77
			c-9.237,0-16.754,7.514-16.754,16.75c0,9.234,7.517,16.748,16.754,16.748c9.232,0,16.744-7.513,16.744-16.748
			C44.481,14.284,36.97,6.77,27.738,6.77L27.738,6.77z"/>
	</g>
	<g>
		<path fill="#193B69" d="M27.738,36.07c-6.922,0-12.556-5.63-12.556-12.55c0-6.921,5.634-12.553,12.556-12.553
			c6.921,0,12.55,5.632,12.55,12.553C40.288,30.44,34.659,36.07,27.738,36.07L27.738,36.07z M27.738,13.484
			c-5.536,0-10.039,4.501-10.039,10.036c0,5.533,4.503,10.033,10.039,10.033s10.033-4.5,10.033-10.033
			C37.771,17.985,33.273,13.484,27.738,13.484L27.738,13.484z"/>
	</g>
	<g>
		<g>
			<path fill="#193B69" d="M17.011,62.88c-0.845,0-1.637-0.426-2.104-1.139l-3.898-5.952l-7.118-0.162
				c-0.885-0.02-1.691-0.499-2.129-1.263c-0.438-0.766-0.442-1.704-0.015-2.474l9.262-16.68c0.673-1.215,2.212-1.653,3.421-0.979
				c1.215,0.675,1.652,2.206,0.979,3.422L8.167,50.691l4.277,0.097c0.826,0.018,1.593,0.444,2.045,1.135l2.345,3.575l7.241-13.035
				c0.674-1.215,2.207-1.653,3.421-0.978c1.214,0.674,1.652,2.206,0.979,3.421l-9.262,16.678c-0.428,0.77-1.229,1.261-2.109,1.293
				C17.075,62.88,17.04,62.88,17.011,62.88L17.011,62.88z"/>
		</g>
		<g>
			<path fill="#193B69" d="M38.454,62.88c-0.029,0-0.059,0-0.088-0.002c-0.884-0.032-1.681-0.523-2.109-1.293l-9.262-16.678
				c-0.678-1.215-0.241-2.747,0.979-3.421c1.214-0.675,2.748-0.237,3.421,0.978l7.237,13.035l2.344-3.575
				c0.452-0.691,1.219-1.117,2.05-1.135l4.271-0.097l-7.236-13.038c-0.678-1.216-0.241-2.747,0.979-3.422
				c1.209-0.674,2.748-0.236,3.421,0.979l9.262,16.68c0.428,0.771,0.423,1.708-0.02,2.474c-0.438,0.764-1.244,1.244-2.124,1.263
				l-7.118,0.162l-3.903,5.952C40.096,62.454,39.3,62.88,38.454,62.88L38.454,62.88z"/>
		</g>
	</g>
</g>
</svg>
