<?xml version="1.0" encoding="utf-8"?>
<!-- Generator: Adobe Illustrator 16.0.0, SVG Export Plug-In . SVG Version: 6.00 Build 0)  -->
<!DOCTYPE svg PUBLIC "-//W3C//DTD SVG 1.1//EN" "http://www.w3.org/Graphics/SVG/1.1/DTD/svg11.dtd">
<svg version="1.1" id="Layer_3" xmlns="http://www.w3.org/2000/svg" xmlns:xlink="http://www.w3.org/1999/xlink" x="0px" y="0px"
	 width="86px" height="62.333px" viewBox="0 0 86 62.333" enable-background="new 0 0 86 62.333" xml:space="preserve">
<g>
	<g>
		<path fill="#193B69" d="M43.475,29.209c-6.846,0-12.422-6.198-12.422-13.817c0-7.615,5.577-13.81,12.422-13.81
			c6.846,0,12.417,6.195,12.417,13.81C55.891,23.011,50.321,29.209,43.475,29.209L43.475,29.209z M43.475,8.146
			c-3.23,0-5.858,3.25-5.858,7.247c0,4,2.628,7.253,5.858,7.253c3.231,0,5.853-3.253,5.853-7.253
			C49.327,11.396,46.706,8.146,43.475,8.146L43.475,8.146z"/>
	</g>
	<g>
		<path fill="#193B69" d="M60.84,61.333H25.661c-1.724,0-3.153-1.333-3.275-3.055c-0.269-3.808-0.525-7.618-0.775-11.365
			c-0.314-4.6,3.122-9.711,7.653-11.388c9.038-3.247,18.961-3.228,27.941-0.01c4.57,1.676,8.006,6.792,7.686,11.41l-0.776,11.352
			C63.994,60,62.564,61.333,60.84,61.333L60.84,61.333z M28.719,54.77h29.057l0.564-8.292c0.096-1.401-1.275-4.022-3.372-4.792
			c-7.5-2.689-15.897-2.699-23.461,0.006c-2.064,0.763-3.442,3.391-3.346,4.782C28.341,49.215,28.533,51.991,28.719,54.77
			L28.719,54.77z"/>
	</g>
	<g>
		<path fill="#193B69" d="M60.84,61.333H25.661c-1.724,0-3.153-1.333-3.275-3.055c-0.269-3.808-0.525-7.618-0.775-11.365
			c-0.314-4.6,3.122-9.711,7.653-11.388c9.038-3.247,18.961-3.228,27.941-0.01c4.57,1.676,8.006,6.792,7.686,11.41l-0.776,11.352
			C63.994,60,62.564,61.333,60.84,61.333L60.84,61.333z M28.719,54.77h29.057l0.564-8.292c0.096-1.401-1.275-4.022-3.372-4.792
			c-7.5-2.689-15.897-2.699-23.461,0.006c-2.064,0.763-3.442,3.391-3.346,4.782C28.341,49.215,28.533,51.991,28.719,54.77
			L28.719,54.77z"/>
	</g>
	<g>
		<path fill="#193B69" d="M82.121,56H68.115c-0.91,0-1.641-0.734-1.641-1.641c0-0.907,0.731-1.641,1.641-1.641h12.474l0.57-8.269
			c0.122-1.801-1.461-4.525-3.692-5.343c-3.186-1.141-6.532-1.75-9.942-1.808c-0.91-0.016-1.628-0.763-1.615-1.67
			c0.019-0.897,0.75-1.612,1.641-1.612h0.032c3.77,0.064,7.468,0.737,11,2.003c3.417,1.253,6.089,5.214,5.853,8.65l-0.673,9.801
			C83.698,55.333,82.986,56,82.121,56L82.121,56z"/>
	</g>
	<g>
		<path fill="#193B69" d="M71.346,30.456c-4.833,0-8.769-4.42-8.769-9.853c0-5.429,3.936-9.849,8.769-9.849
			c4.827,0,8.756,4.42,8.756,9.849C80.102,26.036,76.173,30.456,71.346,30.456L71.346,30.456z M71.346,14.037
			c-3.025,0-5.487,2.945-5.487,6.567c0,3.622,2.461,6.57,5.487,6.57c3.02,0,5.475-2.948,5.475-6.57
			C76.82,16.982,74.365,14.037,71.346,14.037L71.346,14.037z"/>
	</g>
	<g>
		<path fill="#193B69" d="M18.334,56H4.322c-0.859,0-1.577-0.667-1.635-1.529l-0.673-9.804c-0.237-3.433,2.436-7.394,5.839-8.644
			c3.545-1.269,7.244-1.942,11.013-2.006c0.949,0.125,1.654,0.705,1.673,1.612c0.013,0.907-0.705,1.654-1.615,1.67
			c-3.41,0.058-6.756,0.667-9.948,1.811c-2.225,0.814-3.808,3.539-3.686,5.336l0.564,8.272h12.48c0.911,0,1.641,0.734,1.641,1.641
			C19.976,55.266,19.245,56,18.334,56L18.334,56z"/>
	</g>
	<g>
		<path fill="#193B69" d="M15.104,30.456c-4.827,0-8.756-4.42-8.756-9.853c0-5.429,3.93-9.849,8.756-9.849
			c4.833,0,8.769,4.42,8.769,9.849C23.873,26.036,19.937,30.456,15.104,30.456L15.104,30.456z M15.104,14.037
			c-3.019,0-5.474,2.945-5.474,6.567c0,3.622,2.455,6.57,5.474,6.57c3.025,0,5.487-2.948,5.487-6.57
			C20.591,16.982,18.129,14.037,15.104,14.037L15.104,14.037z"/>
	</g>
</g>
</svg>
