<?xml version="1.0" encoding="utf-8"?>
<!-- Generator: Adobe Illustrator 23.0.1, SVG Export Plug-In . SVG Version: 6.00 Build 0)  -->
<svg version="1.1" id="Layer_1" xmlns="http://www.w3.org/2000/svg" xmlns:xlink="http://www.w3.org/1999/xlink" x="0px" y="0px"
	 viewBox="0 0 256 256.07" enable-background="new 0 0 256 256.07" xml:space="preserve">
<g>
	<g>
		<rect x="0" fill="#B9D332" width="256" height="256.07"/>
		<path fill="#5F7433" d="M238,18v220.07H18V18H238 M256,0H0v256.07h256V0L256,0z"/>
	</g>
	<g>
		<g>
			<path fill="#5F7433" d="M198.97,18c-30.06,25.66-57.53,53.06-82.11,82.03c-22.23,26.19-42.29,53.5-60.3,81.56
				c-9.01,14.03-17.63,28.26-25.21,42.79c-0.21,0.41-0.43,0.83-0.64,1.24c0.15-0.29,3.24-2.15,3.38-2.25
				c2.54-1.93,4.99-3.94,7.41-5.97c2.42-2.03,4.81-4.08,7.11-6.19c0.86-0.8,2.13-1.78,2.64-2.79c5.51-10.91,11.84-21.46,18.41-32.12
				c3.87-6.28,7.85-12.52,11.93-18.72c14.05-0.4,27.7-3.46,40.14-9.14c12.05-5.49,22.44-13.29,31.58-21.87
				c9.53-8.96,17.64-18.93,25.34-29.03c7.39-9.71,13.33-20.01,24.75-26.79c10.45-6.19,22.83-9.64,34.6-13.61V18H198.97z"/>
		</g>
		<g>
			<path fill="#5F7433" d="M101,93.28c-20.66,19.29-39.53,21.12-31.14,55.01C109.9,92.39,150.76,49.87,187.44,18h-40.8
				c-0.61,0.39-1.2,0.81-1.75,1.25C119.72,39.58,124.24,71.91,101,93.28z"/>
		</g>
	</g>
</g>
<g>
</g>
<g>
</g>
<g>
</g>
<g>
</g>
<g>
</g>
<g>
</g>
</svg>
