<?xml version="1.0" encoding="utf-8"?>
<!-- Generator: Adobe Illustrator 23.0.1, SVG Export Plug-In . SVG Version: 6.00 Build 0)  -->
<svg version="1.1" id="Layer_1" xmlns="http://www.w3.org/2000/svg" xmlns:xlink="http://www.w3.org/1999/xlink" x="0px" y="0px"
	 viewBox="0 0 329.8 391.62" enable-background="new 0 0 329.8 391.62" xml:space="preserve">
<g id="Layer_2">
</g>
<g id="Layer_1">
	
		<linearGradient id="SVGID_1_" gradientUnits="userSpaceOnUse" x1="29.6868" y1="77.9733" x2="373.8832" y2="366.7889" gradientTransform="matrix(1 0 0 -1 -11 440.8982)">
		<stop  offset="0" style="stop-color:#FFFFFF;stop-opacity:0.6"/>
		<stop  offset="1" style="stop-color:#FFFFFF"/>
	</linearGradient>
	<path vector-effect="non-scaling-stroke" fill="url(#SVGID_1_)" d="M253.35,51.33c19.49-1.5,43.47,19.49,43.47,19.49l32.98-35.98
		c0,0-26.98-38.98-86.95-34.48c-56.97,4.5-70.46,46.47-70.46,74.95v38.98c-1.5,0-4.5,0-7.5,0c-19.49,0-47.97,0-55.47,0
		c-26.98,1.5-49.47,7.5-65.96,22.49c-17.99,13.49-26.98,34.48-26.98,61.46c0,22.49,7.5,40.48,20.99,52.47
		c13.49,13.49,29.98,20.99,50.97,22.49l35.98,4.5c8.99,0,16.49,3,22.49,6c6,4.5,7.5,10.49,7.5,19.49c0,10.49-4.5,19.49-13.49,25.48
		c-8.99,6-13.49,8.99-26.98,8.99c-31.48,0-58.46-11.99-77.95-34.48L0,340.65c32.98,31.48,68.96,47.97,109.43,47.97
		c25.48,0,38.98-6,55.47-14.99c3-1.5,7.5-4.5,10.49-6c19.49-13.49,28.48-34.48,29.98-59.96c0-22.49-6-40.48-16.49-53.97
		c-6-7.5-13.49-13.49-23.99-17.99c-8.99-4.5-19.49-6-32.98-7.5l-32.98-3c-11.99-1.5-20.99-4.5-25.48-8.99c-6-4.5-7.5-8.99-7.5-14.99
		c6-43.47,106.44-29.98,106.44-29.98v58.46c8.99,4.5,41.97,16.49,43.47,77.95c1.5,55.47-40.48,73.46-43.47,76.45v7.5h56.97V171.26
		h55.47v-55.47h-56.97V75.32C229.36,64.82,236.86,52.83,253.35,51.33z"/>
</g>
</svg>
