<?xml version="1.0" encoding="utf-8"?>
<!-- Generator: Adobe Illustrator 23.0.1, SVG Export Plug-In . SVG Version: 6.00 Build 0)  -->
<svg version="1.1" id="Layer_1" xmlns="http://www.w3.org/2000/svg" xmlns:xlink="http://www.w3.org/1999/xlink" x="0px" y="0px"
	 viewBox="0 0 643.55 188.21" enable-background="new 0 0 643.55 188.21" xml:space="preserve">
<g fill="#ffffff">
	<g>
		<path fill="#ffffff" d="M15.27,30.54c0-9.94-0.52-17.44-2.62-19.88c-1.56-2.09-3.83-3.13-8.01-3.48L0.79,6.83
			c-0.87-1.06-0.7-2.27,0.17-2.79c12.9-1.22,26.84-1.39,35.91-1.39c11.86,0,23.01,1.74,31.2,6.62c8.03,4.71,13.94,13.6,13.94,25.8
			c0,29.27-29.79,33.46-38.87,33.46h-3.65c-0.7-0.87-0.7-1.92,0-2.44c20.22-3.84,28.07-14.64,28.07-31.02
			c0-17.44-10.12-28.42-28.24-28.42c-4.18,0-8.55,0.53-9.93,1.75c-0.7,0.52-0.87,2.09-0.87,5.4v76.52c0,10.11,0.52,18.83,2.44,21.44
			c1.74,2.26,5.4,2.96,8.19,3.31l5.58,0.87c0.52,0.88,0.52,2.26-0.35,2.79c-10.28-0.35-15.51-0.53-22.49-0.53
			c-6.98,0-12.21,0.18-20.22,0.53c-0.87-0.53-0.87-1.91-0.35-2.79l3.32-0.69c2.78-0.53,6.44-1.22,8.19-3.49
			c1.92-2.61,2.44-11.33,2.44-21.44V30.54z"/>
		<path fill="#ffffff" d="M106.69,71.85c-4.18,0-4.53,0.17-5.58,3.66l-9.23,27.2c-1.39,4.18-1.91,6.27-1.91,8.54
			c0,1.91,1.22,2.96,5.23,3.66l6.44,1.04c0.52,0.88,0.52,2.1-0.18,2.79c-4.69-0.35-10.11-0.35-17.26-0.53
			c-6.27,0-11.14,0.18-16.38,0.53c-0.87-0.69-0.87-1.91-0.36-2.79l6.63-1.57c4.19-0.87,6.1-1.91,9.23-9.23
			c3.49-7.85,7.15-17.09,15.52-38.69l17.43-46.2c2.96-7.84,3.14-10.81,2.79-13.25c6.62-2.61,7.84-6.62,8.37-6.62
			c1.21,0,1.91,0.35,2.26,1.57c1.05,2.97,3.13,10.28,8.89,27.2l22.84,66.24c5.23,15.17,7.15,18.3,14.29,19.69l5.22,0.87
			c0.7,0.7,0.54,2.1-0.17,2.79c-5.4-0.35-11.16-0.53-20.22-0.53c-6.98,0-13.42,0.36-19,0.53c-0.87-0.69-1.04-1.91-0.34-2.79
			l5.05-1.04c3.65-0.71,5.75-1.57,5.75-4.2c0-1.9-0.87-5.04-2.26-9.22l-8.36-25.98c-1.23-3.66-1.74-3.66-5.59-3.66H106.69
			 M133.54,66.45c4.7,0,4.53-0.18,2.95-4.71l-9.76-29.11c-1.39-4.36-3.14-10.29-4.71-13.25c-0.7,1.74-3.83,8.36-6.97,17.26
			l-9.08,25.27c-1.73,4.36-1.73,4.54,3.33,4.54H133.54z"/>
		<path fill="#ffffff" d="M220.51,90.68c0,10.1,0.52,18.65,2.44,21.26c1.75,2.1,5.4,2.79,8.19,3.14l7.15,0.87
			c0.7,0.88,0.51,2.26-0.35,2.79c-7.15-0.35-14.12-0.53-23.53-0.53c-7.67,0-13.6,0.18-22.85,0.53c-0.86-0.35-1.05-2.09-0.34-2.79
			l5.92-0.87c2.27-0.35,5.93-1.05,7.67-3.14c1.92-2.43,2.44-11.15,2.44-21.26v-7.85c0-1.57,0-5.05-0.52-8.71
			c-0.35-2.79-2.61-7.85-5.07-12.9L183.9,25.13c-3.49-7.14-6.62-12.72-9.24-15.16c-2.09-1.92-5.05-2.97-7.49-3.49l-4.7-1.05
			c-0.71-0.87-0.52-2.44,0.34-2.78c4.88,0.35,11.5,0.52,18.83,0.52c7.33,0,13.95-0.18,19.17-0.52c0.87,0.52,1.05,1.91,0.18,2.78
			l-5.58,1.4c-2.79,0.7-4.18,1.39-4.18,2.61c0,2.27,2.43,7.67,5.75,14.47c6.63,13.6,13.08,27.02,20.23,40.26
			c5.92-10.28,11.5-20.56,17.42-31.02c5.24-9.59,10.98-21.09,10.98-23.71c0-1.22-2.09-2.09-5.41-2.79l-5.57-1.22
			c-0.7-0.87-0.52-2.26,0.35-2.78c6.27,0.35,11.34,0.52,16.74,0.52c5.4,0,10.29-0.18,15.17-0.52c0.87,0.52,1.04,2.1,0.35,2.78
			l-5.07,1.4c-4.36,1.04-6.1,2.44-8.71,6.27c-8.72,12.38-16.21,25.79-23.88,38.87c-6.62,11.15-7.49,14.64-8.37,18.3
			c-0.52,2.61-0.69,8.72-0.69,12.38V90.68z"/>
		<path fill="#ffffff" d="M292.86,71.85c-4.19,0-4.54,0.17-5.58,3.66l-9.24,27.2c-1.39,4.18-1.91,6.27-1.91,8.54
			c0,1.91,1.23,2.96,5.23,3.66l6.45,1.04c0.51,0.88,0.51,2.1-0.18,2.79c-4.7-0.35-10.11-0.35-17.26-0.53
			c-6.27,0-11.15,0.18-16.39,0.53c-0.86-0.69-0.86-1.91-0.35-2.79l6.62-1.57c4.19-0.87,6.1-1.91,9.24-9.23
			c3.49-7.85,7.15-17.09,15.52-38.69l17.42-46.2c2.97-7.84,3.15-10.81,2.8-13.25c6.61-2.61,7.83-6.62,8.36-6.62
			c1.22,0,1.91,0.35,2.26,1.57c1.06,2.97,3.14,10.28,8.89,27.2l22.84,66.24c5.24,15.17,7.16,18.3,14.29,19.69l5.23,0.87
			c0.7,0.7,0.53,2.1-0.17,2.79c-5.4-0.35-11.15-0.53-20.21-0.53c-6.98,0-13.43,0.36-19,0.53c-0.88-0.69-1.05-1.91-0.35-2.79
			l5.05-1.04c3.66-0.71,5.75-1.57,5.75-4.2c0-1.9-0.87-5.04-2.25-9.22l-8.37-25.98c-1.22-3.66-1.73-3.66-5.59-3.66H292.86
			 M319.7,66.45c4.7,0,4.53-0.18,2.96-4.71l-9.77-29.11c-1.39-4.36-3.13-10.29-4.7-13.25c-0.71,1.74-3.83,8.36-6.98,17.26
			l-9.06,25.27c-1.75,4.36-1.75,4.54,3.32,4.54H319.7z"/>
		<path fill="#ffffff" d="M382.62,30.54c0-9.94-0.52-17.44-2.62-19.88c-1.55-2.09-3.83-3.13-8.01-3.48l-3.84-0.35
			c-0.87-1.06-0.7-2.27,0.17-2.79c12.9-1.22,26.84-1.39,35.91-1.39c11.86,0,23.01,1.74,31.21,6.62c8.02,4.71,13.94,13.6,13.94,25.8
			c0,29.27-29.81,33.46-38.87,33.46h-3.66c-0.7-0.87-0.7-1.92,0-2.44c20.22-3.84,28.07-14.64,28.07-31.02
			c0-17.44-10.12-28.42-28.23-28.42c-4.19,0-8.56,0.53-9.94,1.75c-0.7,0.52-0.87,2.09-0.87,5.4v76.52c0,10.11,0.51,18.83,2.43,21.44
			c1.74,2.26,5.4,2.96,8.19,3.31l5.58,0.87c0.51,0.88,0.51,2.26-0.36,2.79c-10.28-0.35-15.5-0.53-22.49-0.53
			c-6.96,0-12.19,0.18-20.21,0.53c-0.87-0.53-0.87-1.91-0.35-2.79l3.32-0.69c2.77-0.53,6.45-1.22,8.19-3.49
			c1.93-2.61,2.44-11.33,2.44-21.44V30.54z"/>
		<path fill="#ffffff" d="M47.4,163.93c0,6.43-0.85,13.02-5.03,17.65c-3.33,3.64-9.14,5.58-15.03,5.58
			c-6.05,0-10.99-0.99-14.79-4.34c-4.03-3.4-5.89-9.07-5.89-17.51v-18.13c0-4.48-0.23-8.44-1.08-9.53c-0.78-1-2.4-1.31-3.64-1.54
			l-1.71-0.31c-0.32-0.47-0.32-0.93,0.08-1.25c3.64,0.16,6.11,0.23,9.28,0.23c3.34,0,6.05-0.07,9.54-0.23
			c0.38,0.23,0.38,0.78,0.07,1.25l-1.93,0.31c-1.24,0.23-2.87,0.54-3.64,1.54c-0.86,1.17-1.08,5.05-1.08,9.53v16.96
			c0,11.94,4.1,20.46,16.1,20.46c12.01,0,16.28-8.75,16.28-20.53v-10.22c0-3.64-0.16-13.72-1.47-16.04c-0.54-0.85-1.94-1.4-3.87-1.7
			l-2.32-0.31c-0.32-0.31-0.24-1.08,0.07-1.25c3.1,0.16,5.97,0.23,8.91,0.23c2.87,0,4.95-0.07,7.59-0.23
			c0.31,0.23,0.39,0.78,0.08,1.25l-2.09,0.39c-1.48,0.32-2.94,0.93-3.26,1.7c-1.23,2.79-1.17,13.17-1.17,15.97V163.93z"/>
		<path fill="#ffffff" d="M107.32,172.75c0,2.32,0,11.86,0.31,13.63c-0.07,0.39-0.38,0.71-1.01,0.78c-0.93-1.31-2.94-4.18-7.59-9.45
			L78.2,154.25c-5.81-6.6-7.36-8.45-8.76-9.7c-0.78,0-0.78,1.16-0.78,4.8v17.5c0,3.65,0.17,13.72,1.48,16.04
			c0.53,0.86,1.93,1.4,3.88,1.71l2.31,0.32c0.31,0.29,0.24,1.08-0.08,1.25c-3.08-0.17-5.95-0.25-8.91-0.25
			c-2.86,0-4.95,0.08-7.59,0.25c-0.3-0.25-0.39-0.79-0.08-1.25l2.09-0.39c1.48-0.32,2.95-0.94,3.26-1.71
			c1.25-2.79,1.17-13.17,1.17-15.97V150.6c0-8.05,0.09-10.77-2.09-12.7c-1.17-0.92-2.71-1.38-4.57-1.77l-1.63-0.31
			c-0.31-0.47-0.23-1.01,0.15-1.25c2.65,0.16,5.11,0.23,7.67,0.23c1.79,0,3.11-0.07,4.19-0.23c1.54,3.64,6.89,10,13.08,16.74
			l7.67,8.45c3.64,4.02,11.78,13.17,13.79,15.11c0.39-0.31,0.39-1.86,0.39-4.03v-16.96c0-3.64-0.15-13.72-1.47-16.04
			c-0.54-0.85-1.93-1.4-3.87-1.7l-2.33-0.31c-0.31-0.31-0.22-1.08,0.07-1.25c3.11,0.16,5.97,0.23,8.92,0.23
			c2.87,0,4.96-0.07,7.59-0.23c0.31,0.23,0.38,0.78,0.08,1.25l-2.1,0.39c-1.46,0.32-2.94,0.93-3.25,1.7
			c-1.24,2.79-1.17,13.17-1.17,15.97V172.75z"/>
		<path fill="#ffffff" d="M129.54,173.53c0,4.49,0.24,8.37,1.09,9.53c0.77,1,2.4,1.32,3.64,1.55l1.93,0.32
			c0.22,0.38,0.22,1-0.16,1.25c-4.03-0.17-6.35-0.25-9.45-0.25c-3.1,0-5.41,0.08-9.44,0.25c-0.4-0.25-0.4-0.87-0.17-1.25l1.94-0.32
			c1.24-0.23,2.86-0.55,3.64-1.55c0.85-1.16,1.08-5.04,1.08-9.53v-26.34c0-4.48-0.24-8.44-1.08-9.53c-0.78-1-2.4-1.31-3.64-1.54
			l-1.86-0.31c-0.31-0.47-0.31-0.93,0.09-1.25c3.78,0.16,6.26,0.23,9.44,0.23c3.33,0,6.04-0.07,9.54-0.23
			c0.38,0.23,0.38,0.78,0.07,1.25l-1.93,0.31c-1.24,0.23-2.87,0.54-3.64,1.54c-0.86,1.17-1.09,5.05-1.09,9.53V173.53z"/>
		<path fill="#ffffff" d="M148.33,146.88c-1.93-4.8-2.79-6.89-3.56-8.21c-0.78-1.24-1.78-2.01-3.57-2.4l-2.32-0.46
			c-0.3-0.47-0.22-1.01,0.16-1.25c2.33,0.16,4.88,0.23,8.13,0.23c3.11,0,5.73-0.07,8.6-0.23c0.39,0.32,0.39,0.93,0.08,1.25
			l-2.02,0.46c-1.7,0.31-2.47,0.46-2.47,1.48c0,1,1.63,5.26,4.03,11.23l7.59,18.9c1.78,4.42,3.17,7.37,3.57,8.3
			c0.61-1.24,1.62-3.33,3.4-7.51l4.34-10.23c3.88-9.15,5.65-13.95,6.89-17.36c0.55-1.55,0.86-2.87,0.86-3.56
			c0-0.54-0.86-0.93-2.48-1.25l-2.4-0.46c-0.31-0.31-0.31-1.01,0.16-1.25c2.86,0.16,5.34,0.23,7.74,0.23c2.56,0,4.88-0.07,7.21-0.23
			c0.39,0.32,0.39,0.86,0.16,1.25l-2.33,0.39c-1.93,0.32-3.09,0.93-4.25,3.17c-1.09,2.02-5.05,9.91-8.37,17.74l-4.19,9.6
			c-3.1,7.05-6.59,16.11-7.9,20.22c-0.15,0.16-0.46,0.23-0.7,0.23c-0.23,0-0.54-0.07-0.7-0.23c-0.86-3.26-2.33-7.05-3.64-10.3
			L148.33,146.88z"/>
		<path fill="#ffffff" d="M200.93,147.04c0-5.11-0.31-7.98-1.09-9.14c-0.7-0.92-1.77-1.38-3.56-1.77l-1.47-0.31
			c-0.32-0.38-0.24-0.93,0.14-1.25c1.78,0.08,3.26,0.16,4.81,0.16c1.47,0.07,2.94,0.07,4.49,0.07h14.25c4.96,0,9.29,0,10.46-0.23
			c0.31,1.32,0.78,6.91,1.16,9.84c-0.23,0.32-0.93,0.39-1.39,0.24c-0.86-3.49-2.09-6.51-6.35-7.45c-1.63-0.39-4.11-0.62-7.59-0.62
			h-4.27c-2.62,0-3.16,0.31-3.32,1c-0.15,0.62-0.38,1.94-0.38,5.65v12.33c0,2.4,0.06,2.63,2.32,2.63h4.34c3.4,0,5.88-0.15,7.12-0.54
			c0.78-0.23,1.62-1.01,2.17-2.94l0.78-2.95c0.32-0.22,1.17-0.22,1.39,0.09c0,1.54-0.22,4.64-0.22,7.5c0,2.95,0.22,5.9,0.22,7.51
			c-0.22,0.33-1.07,0.33-1.39,0.08l-0.85-3.1c-0.48-1.55-1.09-2.4-2.1-2.78c-1.32-0.47-3.72-0.79-7.12-0.79h-4.34
			c-2.26,0-2.32,0.24-2.32,2.65v10.91c0,3.65,0.15,7.21,1.31,8.52c0.86,0.93,2.39,1.79,9.14,1.79c9.38,0.15,12.86-0.87,16.19-8.83
			c0.39-0.25,1.33,0,1.4,0.38c-0.39,2.48-1.94,8.36-3.25,10.47c-3.49-0.09-6.89-0.17-10.23-0.17c-3.26-0.08-6.51-0.08-9.77-0.08
			h-7.35c-3.88,0-7.36,0.08-10.92,0.25c-0.4-0.25-0.47-0.87-0.16-1.25l3.1-0.48c1.24-0.15,2.86-0.69,3.49-1.47
			c0.86-1.08,1.17-4.8,1.17-9.3V147.04z"/>
		<path fill="#ffffff" d="M244,147.04c0-4.42-0.32-7.59-0.94-8.6c-0.61-1-1.55-1.71-3.41-1.86l-1.77-0.16
			c-0.32-0.3-0.32-0.85,0.08-1.23c5.97-0.54,11.23-0.62,17.43-0.62c4.34,0,9.14,0.47,12.47,2.25c3.72,2.02,6.43,5.74,6.43,11.17
			c0,6.97-5.65,11.15-9.61,12.62c-0.32,0.56-0.08,1.24,0.31,1.93c6.19,10.01,10.29,16.2,15.8,21c1.47,1.32,3.33,1.86,5.88,1.94
			c0.24,0.23,0.24,0.78,0,0.93c-0.76,0.17-1.93,0.39-3.16,0.39c-7.13,0-10.85-1.94-16.35-9.76c-2.01-2.86-5.27-8.13-7.74-11.77
			c-1.17-1.7-2.1-2.64-5.2-2.64c-4.18,0-4.35,0.16-4.35,1.94v8.98c0,4.49,0.24,8.37,1.1,9.53c0.76,1,2.39,1.32,3.63,1.55l1.56,0.32
			c0.23,0.38,0.23,1-0.16,1.25c-3.65-0.17-5.96-0.25-9.07-0.25c-3.1,0-5.42,0.08-9.44,0.25c-0.39-0.25-0.39-0.87-0.16-1.25
			l1.93-0.32c1.24-0.23,2.87-0.55,3.64-1.55c0.86-1.16,1.09-5.04,1.09-9.53V147.04 M249.87,158.26c0,1.25,0.17,1.72,0.4,2.01
			c0.31,0.32,1.78,0.55,5.12,0.55c3.17,0,6.18-0.32,8.36-2.01c2.16-1.71,4.03-4.34,4.03-9.84c0-6.51-3.95-12.63-12.39-12.63
			c-2.33,0-4.42,0.23-4.88,0.69c-0.47,0.32-0.55,1.25-0.63,4.03V158.26z"/>
		<path fill="#ffffff" d="M312.31,134.41c0.86,0.15,1.71,0.38,2.65,0.47c0.69,1.85,1.39,6.35,1.39,9.07
			c-0.22,0.38-0.99,0.53-1.39,0.14c-1.32-3.55-3.34-8.75-10.92-8.75c-7.66,0-9.29,5.96-9.29,9.22c0,4.73,3.94,8.05,6.66,9.77
			l7.27,4.49c3.49,2.16,8.44,6.66,8.44,14.1c0,8.36-6.35,14.25-16.34,14.25c-6.04,0-10-2.01-11.4-2.86
			c-1.31-1.55-2.23-6.04-2.23-10.46c0.31-0.46,0.99-0.39,1.31-0.08c1.4,4.04,5.19,11.63,13.71,11.63c6.51,0,9.76-4.49,9.76-9.69
			c0-3.49-0.85-7.59-6.5-11.08l-6.82-4.26c-4.49-2.8-8.59-6.89-8.59-13.71c0-7.14,5.65-13.1,15.27-13.1
			C307.51,133.56,310.38,133.94,312.31,134.41"/>
		<path fill="#ffffff" d="M337.95,173.53c0,4.49,0.24,8.37,1.09,9.53c0.77,1,2.4,1.32,3.64,1.55l1.93,0.32
			c0.23,0.38,0.23,1-0.15,1.25c-4.04-0.17-6.35-0.25-9.45-0.25c-3.11,0-5.43,0.08-9.45,0.25c-0.39-0.25-0.39-0.87-0.17-1.25
			l1.94-0.32c1.23-0.23,2.87-0.55,3.64-1.55c0.86-1.16,1.08-5.04,1.08-9.53v-26.34c0-4.48-0.23-8.44-1.08-9.53
			c-0.77-1-2.41-1.31-3.64-1.54l-1.86-0.31c-0.3-0.47-0.3-0.93,0.09-1.25c3.79,0.16,6.27,0.23,9.45,0.23c3.33,0,6.04-0.07,9.53-0.23
			c0.38,0.23,0.38,0.78,0.07,1.25l-1.93,0.31c-1.24,0.23-2.87,0.54-3.64,1.54c-0.86,1.17-1.09,5.05-1.09,9.53V173.53z"/>
		<path fill="#ffffff" d="M390.33,134.79c2.47,0,4.1-0.07,5.41-0.46c0.63-0.15,1.24-0.77,1.71-1.55c0.29-0.14,0.93-0.07,1.08,0.24
			c-0.85,3.01-1.39,9.3-1.16,11.16c-0.23,0.38-1,0.47-1.39,0.15c-0.54-3.03-1.17-4.88-2.09-5.66c-2.01-1.7-4.95-2.09-9.22-2.09
			h-5.34c-2.33,0-2.41,0.08-2.41,3.02v34.09c0,4.49,0.23,8.28,1.09,9.45c0.77,0.93,2.4,1.32,3.64,1.47l2.63,0.32
			c0.32,0.38,0.32,0.93-0.07,1.25c-3.33-0.17-6.2-0.25-10.15-0.25c-4.49,0-7.67,0.08-10.85,0.25c-0.39-0.32-0.39-0.87-0.07-1.25
			l3.4-0.39c1.24-0.16,2.64-0.48,3.42-1.4c0.85-1.09,1.07-4.95,1.07-9.45V139.6c0-2.95-0.07-3.02-2.4-3.02h-4.49
			c-4.8,0-8.13,0.23-9.76,1.94c-1.77,1.78-2.64,3.57-3.64,5.5c-0.46,0.16-1.24,0-1.39-0.54c1.25-3.18,2.49-7.75,2.95-10.62
			c0.39-0.23,0.78-0.23,1.08,0c0.16,0.39,0.48,1.07,1.33,1.39c0.85,0.31,3.56,0.54,5.57,0.54H390.33z"/>
		<path fill="#ffffff" d="M428.62,173.69c0,4.49,0.24,8.28,1.09,9.45c0.78,0.93,2.4,1.24,3.64,1.4l3.18,0.39
			c0.3,0.38,0.23,1-0.16,1.25c-3.17-0.17-6.28-0.25-10.47-0.25c-3.4,0-6.04,0.08-10.15,0.25c-0.39-0.17-0.46-0.95-0.15-1.25
			l2.63-0.39c1.01-0.16,2.64-0.48,3.41-1.4c0.86-1.09,1.08-4.95,1.08-9.45v-3.49c0-0.7,0-2.25-0.23-3.88
			c-0.16-1.24-1.16-3.49-2.25-5.73l-7.9-16.04c-1.56-3.17-2.95-5.65-4.11-6.74c-0.93-0.85-2.25-1.31-3.33-1.55l-2.09-0.46
			c-0.31-0.38-0.24-1.08,0.15-1.25c2.17,0.16,5.11,0.23,8.37,0.23c3.26,0,6.2-0.07,8.52-0.23c0.39,0.23,0.46,0.86,0.07,1.25
			l-2.47,0.61c-1.25,0.31-1.85,0.62-1.85,1.16c0,1.01,1.08,3.42,2.55,6.44c2.94,6.04,5.81,12.01,8.99,17.89
			c2.63-4.57,5.11-9.14,7.74-13.78c2.32-4.26,4.88-9.38,4.88-10.54c0-0.54-0.93-0.93-2.39-1.23l-2.49-0.54
			c-0.31-0.38-0.23-1.01,0.16-1.25c2.79,0.16,5.04,0.23,7.44,0.23c2.4,0,4.57-0.07,6.74-0.23c0.39,0.23,0.46,0.93,0.16,1.25
			l-2.24,0.61c-1.94,0.48-2.72,1.1-3.88,2.79c-3.86,5.51-7.2,11.47-10.61,17.28c-2.94,4.95-3.33,6.51-3.72,8.13
			c-0.24,1.16-0.31,3.88-0.31,5.51V173.69z"/>
	</g>
	<g>
		<path fill="#ffffff" d="M487.8,127.41c-0.53,0.19-1.06,0.39-1.59,0.59c-0.46-1.26-0.93-2.51-1.4-3.77
			c-0.05-0.15-2.4,0.8-2.63,0.89c-2.76,1.02-5.51,2.04-8.26,3.06c-0.24-0.67-1.11-1.75-0.3-2.04c1.17-0.44,2.35-0.87,3.52-1.3
			c2.31-0.86,4.63-1.72,6.95-2.58c-0.48-1.29-0.96-2.58-1.44-3.86c0.58-0.22,1.44-0.93,1.71-0.23c0.38,1.05,0.78,2.11,1.17,3.16
			C486.3,123.35,487.05,125.38,487.8,127.41"/>
		<path fill="#ffffff" d="M489.13,129.88c1.13,1.79,2.81,3.83,3.26,5.92c0.28,1.33-0.1,2.68-1.18,3.52c-1.68,1.3-3.46,0.8-4.91-0.48
			c-1.09,2.13-2.16,4.25-3.25,6.37c-0.28-0.46-1.2-1.43-1.22-1.95c-0.02-0.41,0.68-1.27,0.87-1.61c0.53-0.98,1.06-1.95,1.59-2.93
			c0.16-0.29,0.89-1.22,0.69-1.53c-0.16-0.26-0.94-1.81-1.17-1.66c-0.83,0.52-1.67,1.04-2.51,1.56c-0.76,0.47-1.52,0.95-2.28,1.43
			c-0.23,0.14-0.98-1.34-1.16-1.62C481.62,134.56,485.37,132.21,489.13,129.88 M488.85,132.36c-0.86,0.53-1.72,1.06-2.57,1.61
			c-0.38,0.23-0.77,0.47-1.15,0.7c-0.08,0.06,1.43,2.23,1.6,2.45c0.61,0.75,1.54,1.4,2.55,1.02c0.87-0.34,1.5-1.13,1.4-2.09
			C490.56,134.72,489.54,133.47,488.85,132.36"/>
		<path fill="#ffffff" d="M497.54,141.78c-2.1,2.03-4.21,4.04-6.32,6.07c-0.67,0.64-1.37,1.47-1.32,2.46
			c0.08,1.6,1.97,2.99,3.49,2.33c1.38-0.6,2.61-2.12,3.69-3.15c1.28-1.24,2.58-2.48,3.85-3.7c0.42-0.41,0.57,0.11,0.93,0.49
			c0.51,0.53,0.62,0.45,0.14,0.93c-1.33,1.28-2.66,2.56-3.98,3.83c-1.1,1.06-2.24,2.43-3.63,3.11c-2.32,1.16-5.04-0.34-6.03-2.59
			c-0.95-2.16,0.32-3.98,1.81-5.43c2.01-1.91,4-3.83,6.01-5.75C496.63,140.84,497.08,141.31,497.54,141.78"/>
		<path fill="#ffffff" d="M513.07,154.74c-0.32,0.46-0.64,0.92-0.97,1.38c-1.11-0.79-2.23-1.57-3.35-2.36
			c-1.42,2.02-2.84,4.04-4.26,6.07c-0.71,1.01-1.44,2.04-2.15,3.06c-0.5,0.71-1.33-0.4-1.91-0.8c2.22-3.17,4.44-6.32,6.67-9.49
			c-0.86-0.6-1.71-1.2-2.56-1.79c-0.09-0.06-0.85-0.53-0.79-0.61c0.32-0.44,0.62-0.89,0.94-1.34
			C507.48,150.82,510.27,152.78,513.07,154.74"/>
		<path fill="#ffffff" d="M515.83,156.25c0.59,0.27,1.2,0.54,1.79,0.81c-0.76,1.69-1.53,3.39-2.29,5.08
			c0.48,0.22,4.57,2.12,4.62,2.01c0.75-1.67,1.51-3.35,2.26-5.02c0.31,0.13,1.7,0.53,1.79,0.81c0.05,0.13-0.34,0.75-0.4,0.87
			c-0.75,1.69-1.52,3.37-2.28,5.07c-0.77,1.72-1.55,3.44-2.32,5.15c-0.15,0.34-0.3,0.68-0.45,1.01c-0.01,0.01-1.62-0.73-1.78-0.81
			c0.83-1.85,1.67-3.71,2.5-5.57c-1.54-0.69-3.06-1.38-4.6-2.08c-0.6,1.34-1.2,2.67-1.79,4c-0.24,0.52-0.48,1.04-0.72,1.56
			c-0.01,0.03-1.61-0.7-1.79-0.78C512.19,164.32,514.02,160.27,515.83,156.25"/>
		<path fill="#ffffff" d="M561.7,166.69c-0.89-1.25-2.03-2.15-3.64-1.61c-1.56,0.51-1.96,2.43-0.42,3.27
			c1.63,0.9,3.67,0.75,5.25,1.82c1.3,0.89,1.84,2.48,1.45,4c-0.45,1.79-2.09,2.72-3.8,2.94c-1.7,0.23-3.46-0.33-4.6-1.62
			c-0.46-0.53-0.73-0.65-0.18-1.08c0.38-0.3,0.76-0.6,1.14-0.9c0.72,1.32,2.02,2.14,3.54,1.93c1.35-0.18,2.57-1.34,2.1-2.78
			c-0.6-1.84-4.07-1.85-5.59-2.55c-3.59-1.66-2.24-6.27,1.38-6.76c1.58-0.21,3.14,0.21,4.25,1.39c0.48,0.51,0.82,0.68,0.26,1.11
			C562.46,166.13,562.08,166.41,561.7,166.69"/>
		<path fill="#ffffff" d="M566.66,162.16c2.79-0.89,5.58-1.77,8.35-2.67c0.08,0.25,0.62,1.51,0.4,1.58
			c-0.69,0.22-1.38,0.43-2.07,0.66c-0.32,0.11-4.27,1.35-4.26,1.38c0.25,0.81,0.51,1.6,0.77,2.41c0.12,0.38,0.17,1.32,0.63,1.16
			c1.51-0.47,3.02-0.95,4.53-1.44c0.15,0.49,0.3,0.96,0.45,1.44c0.09,0.28-0.18,0.24-0.43,0.33c-1.19,0.37-2.38,0.75-3.57,1.13
			c-0.96,0.31-0.53,0.59-0.23,1.52c0.3,0.97,0.61,1.93,0.93,2.91c1.47-0.47,2.94-0.94,4.42-1.41c0.71-0.23,1.43-0.46,2.16-0.7
			c0.36-0.11,0.57,1.23,0.68,1.56c-2.9,0.93-5.79,1.85-8.7,2.79C569.35,170.59,568.01,166.38,566.66,162.16"/>
		<path fill="#ffffff" d="M578.69,157.88c1.86-1.01,3.99-2.58,6.12-2.88c1.33-0.2,2.67,0.27,3.44,1.41c1.2,1.75,0.59,3.48-0.79,4.85
			c2.06,1.21,4.11,2.43,6.16,3.64c-0.36,0.19-1.79,1.24-2.11,1.05c-0.9-0.57-1.8-1.12-2.69-1.69c-0.93-0.59-1.88-1.17-2.81-1.76
			c-0.42-0.27-1.64,0.7-2.07,0.94c0.94,1.73,1.86,3.45,2.8,5.18c-0.56,0.31-1.14,0.61-1.71,0.93c-0.07,0.03-0.28-0.43-0.3-0.5
			c-0.71-1.3-1.41-2.59-2.11-3.9C581.3,162.72,580,160.3,578.69,157.88 M581.16,158.31c0.51,0.96,1.02,1.91,1.54,2.86
			c0.08,0.14,0.38,0.96,0.55,1c0.93-0.48,1.94-0.95,2.75-1.62c0.7-0.59,1.26-1.4,0.95-2.34c-0.29-0.89-1.04-1.54-1.99-1.5
			C583.61,156.74,582.31,157.69,581.16,158.31"/>
		<path fill="#ffffff" d="M597.2,145.32c0.9,2.42,1.81,4.84,2.71,7.27c0.56,1.49,1.11,2.98,1.67,4.47c0.14,0.4,0.29,0.8,0.44,1.2
			c0.14,0.37-0.37,0.56-0.65,0.79c-1.01,0.82-0.87,0.77-1.92,0.13c-1.37-0.86-2.75-1.7-4.11-2.54c-2.29-1.41-4.56-2.81-6.83-4.21
			c0.41-0.34,1.31-1.48,1.81-1.16c1.01,0.62,2.01,1.25,3,1.89c1.37,0.86,2.74,1.71,4.1,2.58c0.31,0.19,1.69,1.35,2.07,1.29
			c0.41,0.25,0.07-0.56,0.06-0.6c-0.18-0.49-0.37-0.97-0.56-1.46c-0.57-1.48-1.14-2.96-1.71-4.43c-0.46-1.2-0.93-2.39-1.38-3.59
			C595.59,146.16,596.61,145.79,597.2,145.32"/>
		<path fill="#ffffff" d="M607.94,151.34c0.27-0.29,0.53-0.6,0.8-0.9c-2.73-2.4-5.44-4.81-8.16-7.21c-0.26,0.3-0.53,0.6-0.79,0.9
			c-0.3-0.28-0.61-0.54-0.91-0.81c0.98-1.11,1.96-2.22,2.94-3.32c0.25,0.22,1.04,0.65,0.78,0.95c-0.15,0.17-0.81,0.68-0.61,0.87
			c0.81,0.71,1.62,1.43,2.43,2.15c1.88,1.67,3.76,3.32,5.64,4.99c0.26-0.29,0.53-0.59,0.79-0.89c0.07-0.09,0.78,0.62,0.91,0.74
			c-0.68,0.77-1.36,1.54-2.03,2.3c-0.29,0.32-0.58,0.66-0.87,0.97C608.77,152.18,608.08,151.46,607.94,151.34"/>
		<path fill="#ffffff" d="M610.89,133.69c-1.63-0.79-3.93-0.03-3.67,2.16c0.2,1.55,1.75,2.8,2.97,3.59c1.43,0.91,3.75,2.34,5.5,1.48
			c2.07-1.01,1.2-3.28-0.21-4.36c0.27-0.3,0.54-0.6,0.82-0.9c0.59-0.66,0.65-0.54,1.28,0.19c1.29,1.46,1.39,3.47,0.39,5.11
			c-1.25,2.04-3.61,2.38-5.75,1.66c-3.15-1.06-8.06-4.43-6.35-8.36c0.81-1.85,2.68-3.13,4.74-2.66c0.67,0.15,1.1,0.14,0.82,0.8
			C611.25,132.84,611.07,133.27,610.89,133.69"/>
		<path fill="#ffffff" d="M610.22,126.86c1.03-2.73,2.07-5.47,3.11-8.2c0.5,0.19,0.98,0.37,1.47,0.56c0.1,0.03-0.16,0.55-0.19,0.65
			c-0.48,1.25-0.95,2.51-1.43,3.77c-0.12,0.32-0.94,1.84-0.56,1.98c1.12,0.43,2.23,0.85,3.35,1.28c0.17,0.06,0.95-2.28,1.06-2.53
			c0.22-0.59,0.43-1.17,0.67-1.76c0.17-0.46,0.2-0.32,0.68-0.13c0.23,0.09,1.08,0.23,0.97,0.51c-0.19,0.51-0.37,1-0.56,1.5
			c-0.38,1-0.76,2-1.14,3c1.39,0.53,2.77,1.05,4.15,1.57c0.83-2.2,1.67-4.41,2.51-6.62c0.48,0.18,1.68,0.29,1.46,0.88
			c-0.34,0.91-0.69,1.82-1.03,2.73c-0.7,1.84-1.39,3.69-2.1,5.53C618.5,130,614.36,128.43,610.22,126.86"/>
		<path fill-rule="evenodd" clip-rule="evenodd" fill="#ffffff" d="M472.88,106.53c-3.27,0-6.08-2.57-6.08-5.91
			c0-3.27,2.83-5.92,6.07-5.92c3.31,0,6.29,2.93,6.04,6.3C478.69,104.16,475.97,106.54,472.88,106.53 M472.88,104.06
			c1.89,0,3.58-1.51,3.58-3.44c0-1.85-1.78-3.44-3.59-3.44c-1.99,0-3.86,1.74-3.62,3.8C469.45,102.73,471.13,104.19,472.88,104.06"
			/>
		<path fill-rule="evenodd" clip-rule="evenodd" fill="#ffffff" d="M625.09,106.65c-3.27,0-6.08-2.57-6.08-5.9
			c0-3.27,2.84-5.93,6.07-5.93c3.33,0,6.3,2.93,6.04,6.31C630.89,104.29,628.18,106.66,625.09,106.65 M625.09,104.19
			c1.89,0,3.59-1.52,3.59-3.44c0-1.85-1.79-3.44-3.6-3.44c-1.99,0-3.85,1.74-3.61,3.81C621.66,102.85,623.34,104.3,625.09,104.19"/>
		<path fill="#ffffff" d="M468.35,79.61c0.63-2.78,1-7.14,4.5-7.67c2.02-0.31,4.05,0.92,4.54,2.92c0.39,1.57-0.16,3.23-0.51,4.76
			c1.78,0.4,3.56,0.81,5.36,1.21c-0.14,0.6-0.28,1.2-0.42,1.8c-0.02,0.08-0.59-0.09-0.67-0.11c-1.54-0.35-3.07-0.7-4.6-1.05
			C473.82,80.85,471.08,80.23,468.35,79.61 M470.35,78.14c1.21,0.27,2.42,0.55,3.64,0.82c0.2,0.05,1.1,0.39,1.27,0.29
			c0.32-1,0.58-2.18,0.48-3.24c-0.15-1.91-2.68-2.85-4.04-1.44C470.8,75.5,470.62,76.93,470.35,78.14"/>
		<path fill="#ffffff" d="M484.95,63.29c-0.69,1.64-1.38,3.27-2.08,4.91c-0.06,0.14,1.81,1.52,2.01,1.68
			c0.56,0.47-0.24,1.45-0.49,2.05c-2.01-1.74-4.04-3.47-6.07-5.2c-1.25-1.09-2.52-2.17-3.79-3.26c-0.34-0.29-0.67-0.58-1.01-0.87
			c-0.25-0.22,0.25-0.92,0.36-1.18c0.11-0.24,0.19-0.88,0.5-0.86c0.44,0.04,0.88,0.08,1.32,0.11c1.64,0.13,3.29,0.27,4.93,0.41
			c2.7,0.22,5.41,0.44,8.12,0.67c-0.19,0.43-0.49,1.84-1,1.79C486.8,63.46,485.88,63.37,484.95,63.29 M483.28,63.15
			c-1.22-0.13-2.43-0.27-3.65-0.39c-0.33-0.04-3.64-0.63-3.77-0.34c-0.11,0.28,2.46,2.07,2.69,2.26c1,0.82,2.01,1.64,3.02,2.45
			C482.14,65.81,482.71,64.48,483.28,63.15"/>
		<path fill="#ffffff" d="M488.61,51.8c1.12,0.74,2.23,1.47,3.36,2.22c0.18,0.12,1.12,0.55,1.17,0.77c0.08,0.27-0.91,1.4-1.09,1.67
			c-1.13-0.76-2.28-1.51-3.42-2.26c-0.91-0.6-1.2-0.69-2.27-0.78c-2.78-0.23-5.58-0.46-8.36-0.69c0.29-0.43,0.77-1.62,1.21-1.85
			c0.42-0.21,1.74,0.2,2.18,0.25c1.07,0.12,2.15,0.24,3.22,0.36c0.54,0.06,1.37,0.31,1.88,0.25c0.56-0.23-0.24-0.97-0.5-1.44
			c-0.51-0.87-1-1.75-1.51-2.62c-0.47-0.83-0.95-1.65-1.42-2.48c-0.17-0.32,0.81-1.41,1.01-1.72
			C485.58,46.24,487.1,49.02,488.61,51.8"/>
		<path fill="#ffffff" d="M500.19,41.88c-1.23,1.29-2.45,2.56-3.69,3.85c-0.1,0.11,1.16,2.06,1.29,2.28
			c0.37,0.63-0.71,1.28-1.17,1.75c-1.28-2.33-2.56-4.68-3.84-7.01c-0.8-1.47-1.6-2.93-2.4-4.4c-0.22-0.39-0.43-0.78-0.64-1.16
			c-0.16-0.3,0.55-0.77,0.75-0.98c0.18-0.19,0.49-0.75,0.77-0.62c0.4,0.19,0.79,0.38,1.19,0.56c1.49,0.71,2.97,1.41,4.47,2.12
			c2.45,1.16,4.91,2.33,7.36,3.49c-0.33,0.35-1.11,1.56-1.56,1.33C501.87,42.7,501.03,42.29,500.19,41.88 M498.67,41.16
			c-1.09-0.55-2.19-1.1-3.28-1.65c-0.31-0.16-3.15-1.88-3.4-1.64c-0.21,0.21,1.57,2.81,1.71,3.07c0.67,1.12,1.32,2.24,1.97,3.37
			C496.67,43.25,497.67,42.2,498.67,41.16"/>
		<path fill="#ffffff" d="M500.15,27.47c1.96-1.36,4.21-3.45,6.74-3.23c1.72,0.16,3.13,1.51,3.52,3.17
			c0.41,1.69-0.51,3.22-1.78,4.26c-0.14,0.12-2.19,1.57-2.19,1.58c0.49,0.71,0.98,1.43,1.47,2.14c0.52,0.75,1.04,1.5,1.56,2.26
			c0.16,0.23-1.22,0.99-1.48,1.17C505.38,35.03,502.76,31.25,500.15,27.47 M502.61,27.72c0.63,0.89,1.25,1.79,1.86,2.68
			c0.32,0.45,0.62,0.9,0.93,1.34c0.21,0.32,1.95-1.22,2.23-1.5c1.43-1.41,0.91-4.18-1.4-4.24
			C504.85,25.98,503.68,26.99,502.61,27.72"/>
		<path fill="#ffffff" d="M524.35,14.78c0.59,1.98,1.16,3.96,1.75,5.94c0.53,1.78,1.02,5.56,3.48,5.42
			c3.66-0.21,2.09-4.33,1.43-6.52c-0.61-2.09-1.23-4.18-1.86-6.27c0.27-0.08,1.44-0.6,1.63-0.48c0.14,0.08,0.22,0.76,0.27,0.89
			c0.46,1.58,0.93,3.16,1.39,4.73c0.32,1.09,0.63,2.17,0.97,3.26c0.81,2.78-0.17,5.21-3.01,6.05c-4.28,1.26-5.32-3.86-6.19-6.84
			c-0.47-1.58-0.94-3.17-1.4-4.75c-0.04-0.13-0.33-0.77-0.27-0.91C522.67,15.07,524.04,14.87,524.35,14.78"/>
		<path fill="#ffffff" d="M539.21,11.32c0.75-0.05,2.18-0.56,2.58,0.17c0.74,1.39,1.48,2.77,2.23,4.16c0.67,1.27,1.35,2.53,2.02,3.8
			c0.24,0.44,1.29,3.13,1.58,3.11c0.21-0.27-0.07-1.15-0.11-1.46c-0.09-0.74-0.14-1.47-0.21-2.2c-0.06-0.75-0.1-1.5-0.17-2.25
			c-0.14-1.96-0.28-3.92-0.43-5.88c0.15-0.01,1.55-0.12,1.55-0.11c0.02,0.27,0.03,0.53,0.05,0.8c0.1,1.45,0.22,2.89,0.32,4.34
			c0.22,2.85,0.43,5.69,0.62,8.53c0.02,0.12-2.26,0.42-2.38,0.2c-0.58-1.09-1.16-2.18-1.74-3.28c-0.78-1.46-1.55-2.92-2.33-4.38
			c-0.17-0.31-0.33-0.62-0.5-0.92c-0.38-0.74-0.76-2.42-1.4-2.89c-0.43,0.43,0.15,2.33,0.21,2.97c0.09,1.25,0.18,2.5,0.28,3.74
			c0.11,1.47,0.21,2.94,0.32,4.4c0.01,0.12,0.14,0.69,0.06,0.8c-0.13,0.17-1.3,0.1-1.54,0.11C539.88,20.5,539.55,15.91,539.21,11.32
			"/>
		<path fill="#ffffff" d="M554.81,23.49c0.38,0.04,0.76,0.08,1.14,0.12c0.25-2.45,0.51-4.89,0.75-7.34
			c0.13-1.23,0.25-2.45,0.39-3.67c0.03-0.42-0.27-0.27-0.68-0.32c-0.74-0.08-0.39-0.65-0.32-1.3c1.01,0.1,2.04,0.21,3.06,0.32
			c0.39,0.04,0.77,0.08,1.16,0.12c0.03,0.01-0.1,1.12-0.12,1.25c-0.16-0.02-1.18-0.21-1.2-0.05c-0.04,0.44-0.09,0.89-0.14,1.33
			c-0.17,1.74-0.36,3.48-0.53,5.22c-0.15,1.44-0.3,2.87-0.45,4.3c-0.04,0.47,0.06,0.35,0.56,0.4c0.88,0.1,0.55,0.46,0.48,1.28
			c-1.42-0.14-2.82-0.29-4.24-0.43C554.72,24.3,554.77,23.9,554.81,23.49"/>
		<path fill="#ffffff" d="M577.11,15.28c-1.46,2.23-2.91,4.46-4.37,6.69c-0.91,1.39-1.82,2.79-2.74,4.19
			c-0.24,0.37-0.48,0.74-0.73,1.11c-0.18,0.28-0.9-0.11-1.16-0.19c-0.25-0.07-0.87-0.08-0.87-0.38c-0.02-0.43-0.03-0.87-0.04-1.3
			c-0.06-1.64-0.12-3.29-0.17-4.93c-0.09-2.7-0.19-5.4-0.28-8.11c0.73,0.21,1.9,0.13,1.92,0.97c0.03,1.26,0.06,2.53,0.1,3.78
			c0.05,1.61,0.09,3.21,0.14,4.82c0,0.24-0.15,2.44,0.15,2.54c0.32,0.09,1.12-1.54,1.25-1.73c0.85-1.33,1.69-2.66,2.55-3.99
			c0.72-1.13,1.44-2.27,2.16-3.39c0.08-0.11,0.24-0.51,0.36-0.56C575.66,14.65,576.77,15.18,577.11,15.28"/>
		<path fill="#ffffff" d="M584.21,18.27c1.61,0.85,3.22,1.69,4.83,2.53c0.8,0.43,1.61,0.85,2.41,1.27c0.46,0.24-0.37,1.23-0.57,1.61
			c-1.71-0.89-3.41-1.79-5.11-2.68c-0.81-0.42-0.68-0.24-1.11,0.59c-0.46,0.88-0.91,1.76-1.38,2.62c1.42,0.74,2.82,1.48,4.24,2.22
			c-0.28,0.5-0.54,1.01-0.8,1.51c-0.04,0.08-0.89-0.42-0.98-0.47c-1.08-0.57-2.16-1.13-3.24-1.7c-0.57,1.09-1.14,2.18-1.72,3.27
			c-0.05,0.09-0.48,0.78-0.38,0.83c0.4,0.21,0.8,0.42,1.2,0.63c1.35,0.7,2.69,1.41,4.03,2.11c0.1,0.05,0.77,0.35,0.73,0.43
			c-0.26,0.5-0.53,1.01-0.79,1.51c-2.59-1.36-5.17-2.71-7.76-4.07C579.93,26.42,582.07,22.34,584.21,18.27"/>
		<path fill="#ffffff" d="M598.79,26.99c1.63,1.34,4.08,2.81,4.95,4.79c0.53,1.24,0.29,2.64-0.56,3.67c-1.24,1.51-2.85,1.68-4.57,1
			c-0.44,2.39-0.89,4.78-1.32,7.17c-0.57-0.46-1.13-0.92-1.7-1.39c-0.12-0.1,0.24-1.2,0.26-1.36c0.37-1.78,0.74-3.56,1.12-5.33
			c0.06-0.31-1.13-1.04-1.38-1.25c-0.39-0.33-0.63,0.33-0.9,0.67c-1.07,1.3-2.14,2.59-3.2,3.89c-0.48-0.4-0.97-0.79-1.44-1.19
			c-0.06-0.05,0.35-0.48,0.4-0.55c1-1.21,2-2.42,3-3.64C595.23,31.32,597.02,29.15,598.79,26.99 M599.22,29.43
			c-0.64,0.77-1.27,1.55-1.91,2.32c-0.32,0.39-0.63,0.77-0.96,1.16c-0.12,0.15,1.88,1.58,2.16,1.75c1.63,1.01,4.27-0.08,3.53-2.29
			C601.62,31.11,600.2,30.25,599.22,29.43"/>
		<path fill="#ffffff" d="M612.22,45.36c0.67-1.47,0.91-3.23-0.76-4.15c-1.65-0.91-3,0.78-2.65,2.36c0.42,1.89,1.47,4.01,0.62,5.92
			c-1.36,3.06-5.35,2.96-7.13,0.45c-1.01-1.44-1.2-3.23-0.52-4.85c0.27-0.64,0.32-0.48,0.93-0.28c0.37,0.13,0.75,0.25,1.13,0.37
			c-0.82,1.35-0.93,3.08,0.29,4.24c1.04,0.98,2.87,0.91,3.53-0.48c0.8-1.71-0.79-4.19-0.82-5.98c-0.06-3.4,4.1-4.87,6.39-2.5
			c1.23,1.27,1.65,3.05,1.08,4.73c-0.29,0.84-0.26,0.81-0.99,0.55C612.94,45.61,612.59,45.49,612.22,45.36"/>
		<path fill="#ffffff" d="M608.97,56.4c0.56,0.93,0.4,1.09,1.27,0.59c1.12-0.65,2.23-1.3,3.34-1.96c1.91-1.12,3.82-2.24,5.73-3.36
			c-0.19-0.33-0.38-0.66-0.57-0.99c0.36-0.21,0.72-0.42,1.09-0.64c0.62,1.07,1.25,2.13,1.86,3.18c0.32,0.56,0.32,0.47-0.25,0.82
			c-0.73,0.43-0.64,0.16-1.06-0.55c-0.21-0.35-1.49,0.65-1.79,0.83c-1.35,0.79-2.7,1.58-4.04,2.37c-1.16,0.68-2.3,1.35-3.46,2.02
			c-0.08,0.05-0.52,0.23-0.57,0.33c-0.11,0.35,0.91,0.86,0.44,1.13c-0.36,0.22-0.78,0.72-1.03,0.28c-0.35-0.61-0.7-1.21-1.06-1.81
			c-0.3-0.52-0.6-1.04-0.91-1.57C607.87,56.94,608.8,56.5,608.97,56.4"/>
		<path fill="#ffffff" d="M628.46,68.38c-0.55,0.21-1.08,0.42-1.63,0.64c-0.15-0.4-1.37-3.69-1.48-3.64
			c-1.39,0.54-2.78,1.08-4.17,1.63c-1.91,0.75-3.83,1.49-5.75,2.24c-0.41,0.16-0.82,0.32-1.23,0.48c-0.05,0.02-0.65-1.6-0.73-1.79
			c3.74-1.46,7.48-2.93,11.22-4.38c-0.38-0.98-0.76-1.95-1.14-2.92c-0.09-0.23-0.43-0.7-0.15-0.81c0.5-0.2,0.99-0.39,1.48-0.58
			C626.08,62.29,627.27,65.33,628.46,68.38"/>
		<path fill="#ffffff" d="M623.06,81.99c-1.32,0.24-2.65,0.48-3.96,0.72c-0.22,0.04-1.19,0.37-1.39,0.25
			c-0.24-0.15-0.3-1.65-0.36-1.96c1.35-0.24,2.69-0.49,4.04-0.73c1.08-0.19,1.34-0.32,2.18-1c2.17-1.76,4.35-3.51,6.53-5.27
			c0.09,0.51,0.56,1.71,0.4,2.17c-0.16,0.43-1.39,1.05-1.74,1.32c-0.87,0.65-1.73,1.31-2.59,1.97c-0.4,0.3-1.25,0.73-1.53,1.12
			c-0.24,0.55,0.84,0.53,1.36,0.69c0.97,0.28,1.93,0.57,2.9,0.87c0.92,0.27,1.83,0.54,2.74,0.81c0.34,0.1,0.4,1.58,0.47,1.94
			C629.07,83.92,626.06,82.96,623.06,81.99"/>
		<path fill="#ffffff" d="M541.76,171.25c0-2.32-1.88-4.21-4.21-4.21c-2.33,0-4.22,1.89-4.22,4.21c0,2.32,1.89,4.22,4.22,4.22
			C539.87,175.46,541.76,173.57,541.76,171.25"/>
		<path fill="#ffffff" d="M549.44,0c-51.97,0-94.1,42.13-94.1,94.11c0,51.97,42.13,94.1,94.1,94.1c51.98,0,94.11-42.13,94.11-94.1
			C643.55,42.13,601.42,0,549.44,0z M549.44,184.94c-50.17,0-90.84-40.67-90.84-90.84c0-50.17,40.67-90.84,90.84-90.84
			s90.84,40.67,90.84,90.84C640.28,144.27,599.61,184.94,549.44,184.94z"/>
		<g>
			<path fill="#ffffff" d="M554.68,78.79c-0.04-3.04-2.55-5.71-5.64-5.66c-3.11,0.05-5.52,2.79-5.47,5.84
				c0.05,3.05,2.55,5.72,5.64,5.67C552.33,84.58,554.73,81.84,554.68,78.79z"/>
			<path fill="#ffffff" d="M601.39,59.27c-0.19-0.29-0.38-0.57-0.57-0.86c-0.18-0.27-0.37-0.53-0.55-0.79
				c-10.6-14.99-27.4-24.8-45.55-26.39c-0.49-0.04-0.98-0.09-1.47-0.11c-0.35-0.03-0.7-0.04-1.04-0.06
				c-0.9-0.04-1.82-0.07-2.74-0.07c-0.06,0-0.13,0-0.19,0c-0.95,0-1.89,0.03-2.82,0.07c-0.52,0.03-1.05,0.07-1.59,0.11
				c-0.44,0.03-0.9,0.06-1.34,0.11c-0.68,0.06-1.36,0.15-2.04,0.24c-0.26,0.04-0.53,0.06-0.8,0.1c-0.79,0.11-1.58,0.24-2.36,0.39
				c-0.13,0.03-0.26,0.05-0.4,0.08c-0.88,0.17-1.77,0.35-2.64,0.56c-0.01,0.01-0.02,0.01-0.02,0.01
				c-10.16,2.42-19.63,7.41-27.52,14.63c-12.56,11.49-19.8,27.66-20.52,44.33c-0.04,0.82-0.06,1.65-0.06,2.48c0,0.02,0,0.05,0,0.07
				c0.01,8.61,1.72,16.81,4.8,24.28c0.07,0.19,0.15,0.37,0.23,0.56c0.24,0.56,0.49,1.12,0.74,1.67c7.1,15.3,20.14,27.33,35.86,33
				c0.48,0.17,0.98,0.34,1.48,0.51c0.25,0.09,0.51,0.17,0.76,0.25c0.93,0.29,1.88,0.56,2.83,0.82c0.02,0,0.02,0,0.04,0.01
				c4.87,1.28,10,1.95,15.26,1.97c0.21,0,0.41,0,0.62,0c0.64,0,1.28-0.03,1.92-0.05c15.86-0.65,31.17-7.46,42.39-19.06
				c0.4-0.42,0.8-0.83,1.18-1.25c0.16-0.17,0.32-0.35,0.48-0.53c5.21-5.86,9.35-12.71,12.11-20.24c0.07-0.19,0.13-0.38,0.2-0.56
				c0.29-0.81,0.56-1.63,0.82-2.45c0.03-0.09,0.06-0.17,0.09-0.27c0.26-0.85,0.49-1.72,0.72-2.6c0.07-0.28,0.14-0.56,0.22-0.84
				c0.16-0.7,0.33-1.4,0.48-2.11c0.05-0.21,0.09-0.41,0.13-0.62c0.18-0.93,0.35-1.86,0.49-2.8c0.03-0.13,0.04-0.25,0.06-0.38
				c0.14-0.97,0.26-1.93,0.36-2.91v-0.01c0.21-2.12,0.32-4.28,0.32-6.45C611.74,81.23,607.93,69.26,601.39,59.27z M549.45,35.74
				c11.91,0,22.87,7.97,26.65,19.4c2.72,8.21,1.36,17.21-3.16,24.32c-0.24-0.37-0.48-0.74-0.74-1.1c-0.25-0.36-0.53-0.72-0.81-1.07
				c3.73-6.36,4.77-14.2,2.39-21.39c-3.45-10.43-13.46-17.71-24.33-17.71c-10.86,0-20.86,7.28-24.31,17.71
				c-2.26,6.8-1.44,14.18,1.8,20.34c-0.29,0.34-0.58,0.68-0.86,1.03c-0.28,0.35-0.55,0.7-0.81,1.06c-3.97-6.92-5.04-15.41-2.46-23.2
				C526.59,43.71,537.54,35.74,549.45,35.74z M581.99,96.98c0.35-0.05,0.69-0.1,1.02-0.15c0,0.72-0.08,1.2-0.29,1.88
				c-0.16,0.55-0.68,0.9-0.67,1.49c0.02,0.64,0.27,1.41-0.28,1.79c-0.55,0.37-1.1,0.72-1.65,1.07V91.88c0-0.78,2.37-1.17,2.82-1.29
				c0.18,0.84-0.14,0.77-0.54,1.47c-0.25,0.47-0.44,0.71-0.44,1.23C581.97,94.52,581.98,95.75,581.99,96.98z M583.48,101.54
				c2.43-1.47,4.7-2.68,7.49-1.33c2.32,1.13,2.72,4.84,0.89,6.51c-0.9,0.82-2.66,0.41-2.54-0.94c0.05-0.68,1.07-0.36,1.32-1.11
				c0,0,0.47-0.85-0.01-1.65c-1.44-3.17-4.5-1.41-6.68-0.09c-2.15,1.32-3.77,3.5-5.73,5.05c-1.07,0.85-2.07,1.73-3.2,2.5
				c-0.73,0.51-1.49,0.87-2.28,1.19c0.68-1,1.26-2.05,1.79-3.13c0.92-0.54,1.75-1.12,2.59-1.83
				C579.17,104.99,581.17,102.93,583.48,101.54z M585.97,126.9c-2.16-0.71-4.32-1.41-6.48-2.11c-2.69-0.88-5.4-1.75-8.09-2.62
				c-0.85-0.27-1.68-0.55-2.53-0.81c-0.62-0.2-0.73-0.24-0.83-0.96c0.31-0.91,2.62,0.24,3.11,0.4c2.32,0.77,4.63,1.53,6.95,2.29
				c2.17,0.71,4.35,1.43,6.53,2.16c0.6,0.19,2.88,1.15,2.66-0.38c1.2-0.09,0.86,1.73,0.04,2.1
				C586.79,127.2,586.48,127.06,585.97,126.9z M585.93,128.15c-0.7,0.24-1.65-0.21-2.31-0.43c-3.53-1.15-7.08-2.3-10.62-3.45
				c-1.4-0.46-2.79-0.91-4.2-1.37c-0.49-0.16-1.73-0.32-1.27-1.15c0.4-0.59,1.62,0.14,2.09,0.29c1.64,0.54,3.27,1.07,4.91,1.6
				c3.5,1.14,7.02,2.28,10.53,3.43C585.53,127.23,587.32,127.67,585.93,128.15z M569.77,119.05c0.02-0.84,0.03-1.67,0.06-2.5
				c0.38-0.07,0.77-0.13,1.16-0.2c-0.03,1.25-0.06,2.49-0.09,3.74C569.81,119.93,569.74,120.11,569.77,119.05z M571.48,119.15v-2.99
				c0.39-0.15,0.78-0.29,1.16-0.44c0.03,1.62,0.06,3.22,0.09,4.84C571.53,120.21,571.48,120.36,571.48,119.15z M573.25,120.69v-5.27
				c0.44-0.23,0.87-0.46,1.29-0.68c0.02,2.13,0.03,4.28,0.04,6.43C574.44,121.1,573.25,120.8,573.25,120.69z M575.3,121.37
				c0.01-1.58,0.02-3.15,0.03-4.74c0.01-0.72,0.01-1.45,0.02-2.17c0-0.34,1.01-0.83,1.28-1.03c-0.02,2.8-0.05,5.6-0.08,8.4
				C576.13,121.69,575.71,121.54,575.3,121.37z M577.23,121.66c0.02-1.03,0.02-2.07,0.04-3.11c0.03-1.96,0.03-3.91,0.06-5.86
				c0.54-0.42,1.07-0.82,1.6-1.24c-0.06,3.65-0.14,7.3-0.21,10.94C578.22,122.25,577.23,122.26,577.23,121.66z M579.5,121.84
				c0.03-1.36,0.05-2.72,0.09-4.08c0.06-2.39,0.11-4.79,0.17-7.19c0.44-0.33,0.89-0.65,1.33-0.99c-0.1,4.56-0.19,9.12-0.27,13.68
				C579.69,122.81,579.47,122.97,579.5,121.84z M581.52,123.38c0.01-0.4,0.02-0.79,0.02-1.18c0.03-1.68,0.06-3.37,0.09-5.04
				c0.05-2.86,0.1-5.71,0.15-8.56c0.45-0.46,0.9-0.91,1.36-1.37c-0.09,5.55-0.18,11.08-0.28,16.62
				C582.62,123.77,581.51,123.62,581.52,123.38z M583.56,124.15c0-0.5,0.02-1,0.02-1.49c0.03-2.07,0.06-4.14,0.09-6.2
				c0.06-3.29,0.11-6.57,0.16-9.86c0.44-0.36,0.9-0.73,1.35-1.09c-0.1,6.39-0.18,12.78-0.27,19.17
				C584.57,124.6,583.55,124.55,583.56,124.15z M586.52,125.06c-0.2,0.13-1.01-0.1-1.01-0.41c0.02-0.37,0.02-0.73,0.02-1.08
				c0.11-6.2,0.23-12.38,0.34-18.57c0.41-0.27,0.83-0.55,1.26-0.82c-0.04,2.54-0.09,5.09-0.14,7.63c-0.07,3.75-0.13,7.48-0.2,11.22
				C586.78,123.58,587.02,124.73,586.52,125.06z M587.26,103.61c-1.06,0.25-2.01,1.13-2.88,1.77c-1.75,1.3-3.2,3.1-4.76,4.61
				c-2.85,2.75-6.29,5.54-10.34,5.98c1.04-1.06,1.99-2.19,2.84-3.39c0.66-0.24,1.36-0.46,1.96-0.81c2.21-1.28,4.01-2.87,5.92-4.56
				c1.81-1.59,3.6-3.55,5.78-4.64c4.38-2.26,5.07,1.72,3.58,2.36C589.85,103.54,588.16,103.4,587.26,103.61z M567.85,115.7
				c-4.08,3.93-9.18,6.4-14.54,7.33c-0.44,0.08-0.9,0.13-1.34,0.18c-0.45,0.06-0.9,0.1-1.35,0.14c-0.2,0.01-0.4,0.03-0.61,0.03
				h-0.09v-0.3h-0.01c0-0.26,0-0.53,0-0.8c0.01-0.89,0.03-1.76,0.07-2.65l0.01-0.09c0.05-0.93,0.11-1.85,0.21-2.78
				c0.31-3.14,0.91-6.23,1.84-9.26c0.47-1.51,1.02-3.01,1.66-4.48c2.17-4.96,4.87-9.48,8.5-13.52c0.27-0.29,0.53-0.57,0.8-0.85
				c1.58-1.69,3.22-3.22,5.13-4.62c0.42-0.3,0.82-0.6,1.24-0.9c0.51-0.38,1.04-0.75,1.57-1.11c0.15-0.1,0.3-0.21,0.46-0.32
				c0.06-0.04,0.21-0.12,0.39-0.22c0.23-0.13,0.51-0.29,0.74-0.43c0.03,0.05,0.06,0.1,0.09,0.15c0.07,0.13,0.14,0.27,0.21,0.4
				c0.24,0.4,0.46,0.8,0.67,1.21c0.33,0.66,0.64,1.33,0.92,2.02C578.68,95.38,576.05,107.78,567.85,115.7z M525.64,129.78
				c-1.24-0.28-2.5-0.69-3.6-1.35c-1.21-0.75-2.09-1.78-2.93-2.93c-1.57-2.13-2.47-4.88-3.53-7.3c-1.13-2.59-2.42-5.1-3.7-7.62
				c-0.51-1-2.08-1.78-3.12-1.92c-1.55-0.23-2.23,0.47-3.38,1.38c-1.04-1.28-0.1-3.38,0.95-4.29c1.3-1.14,3.1-0.99,4.56-0.1
				c2.97,1.81,4.11,5.74,5.46,8.72c0.54,1.21,1.18,2.44,1.8,3.61c0.3,0.58,0.63,1.14,1,1.68c0.32,0.48,0.69,1.36,1.16,1.7
				c1.1,0.79,2.12,1.56,3.49,1.82c1.4,0.25,2.74,0.47,4.15,0.59c4.39,0.37,8.88,0.32,13.29-0.09c0.94,0.25,1.9,0.46,2.87,0.61
				c-0.83,1.19-1.87,2.34-2.95,3.25c-0.97,0.82-2.81,2.88-4.14,2.91C533.23,130.52,529.37,130.63,525.64,129.78z M536.08,131.34
				c-1.85,0.71-3.55,1.25-5.52,1.55c-0.96,0.14-1.81,0.03-2.66-0.37c-0.95-0.44-1.27-0.98-1.49-1.96
				C529.64,131.01,532.81,131.22,536.08,131.34z M505.61,98.98c0.48-0.81,1.22-1.43,1.7-2.25c0.4-0.7,0.62-1.48,0.81-2.26
				c0.17,0.78,0.4,1.56,0.81,2.26c0.48,0.81,1.22,1.44,1.7,2.25c1.15,1.93-0.26,4.4-2.51,4.4
				C505.87,103.38,504.47,100.89,505.61,98.98z M520.56,117.28c1.66,0.88,3.27,1.7,5.12,2.07c1.9,0.38,3.81,0.61,5.73,0.76
				c0.65,0.05,1.29,0.1,1.93,0.12c1,0.63,2.04,1.23,3.13,1.74c0.91,0.43,1.84,0.79,2.79,1.12c-3.31,0.13-6.62,0.24-9.92,0.02
				c-2.18-0.14-4.3-0.33-6.34-1.09C521.57,121.48,519.3,118.84,520.56,117.28z M537.01,120.86c-10.15-4.79-16.6-15.57-16.05-26.84
				c0.19-3.88,1.2-7.55,2.84-10.88c0.11-0.22,0.21-0.44,0.33-0.65c0.1-0.19,0.21-0.38,0.32-0.57c0.13-0.24,0.29-0.48,0.43-0.72
				c0.32,0.19,0.65,0.39,0.97,0.58c0.85,0.51,1.68,1.03,2.51,1.58c0.69,0.47,1.37,0.95,2.04,1.45c1.01,0.74,1.97,1.52,2.91,2.35
				c2.31,2.04,4.39,4.32,6.08,6.9c0.76,1.17,1.55,2.32,2.31,3.5c0.7,1.12,1.14,2.37,1.78,3.53c1.28,2.31,2.12,4.91,2.9,7.44
				c0.03,0.13,0.07,0.25,0.11,0.38c0.79,2.56,1.28,5.1,1.52,7.76c0.02,0.3,0.05,0.61,0.08,0.91c0.02,0.25,0.05,0.51,0.07,0.75
				c0.06,0.7,0.1,1.39,0.12,2.09c0.01,0.1,0.01,0.21,0.01,0.31c0.01,0.76,0.03,1.52,0.03,2.28l0.01,0.23h-0.01l-0.03,0.14v0.01
				c-0.02,0-0.05,0-0.06,0c-0.47-0.01-0.93-0.02-1.39-0.04c-0.47-0.04-0.93-0.08-1.39-0.13
				C542.55,122.91,539.7,122.13,537.01,120.86z M547.03,86.47c-2.25-0.14-4.63-0.22-6.87-0.67c-0.45-0.09-0.89-0.19-1.32-0.31
				c-1.13-0.32-2.24-0.68-3.34-1.06c-1.09-0.38-2.18-0.8-3.25-1.26c-0.25-0.1-0.5-0.21-0.75-0.32c-0.16-0.07-0.33-0.13-0.48-0.21
				c-0.64-0.29-1.27-0.59-1.9-0.9c-0.61-0.31-1.21-0.64-1.81-0.98c-0.04-0.02-0.09-0.05-0.13-0.08c-0.26-0.15-0.52-0.3-0.78-0.46
				c-0.22-0.13-0.44-0.27-0.66-0.4c0.08-0.12,0.15-0.24,0.23-0.36c0.25-0.36,0.51-0.71,0.78-1.05c0.26-0.35,0.54-0.69,0.83-1.04
				c5.14-6.1,12.78-10.01,21.11-10.01c8.65,0,16.8,4.24,22,11.03c0.27,0.35,0.54,0.69,0.79,1.06c0.02,0.01,0.02,0.02,0.03,0.03
				c-0.15,0.12-0.28,0.24-0.44,0.35c-0.32,0.23-0.65,0.44-0.99,0.64c-0.71,0.42-1.45,0.79-2.12,1.22c-0.01,0.01-0.02,0.01-0.02,0.02
				c-1.25,0.79-2.66,1.29-4.02,1.84c-1.85,0.75-3.79,1.46-5.76,1.96c-0.94,0.24-1.9,0.43-2.84,0.55
				C552.54,86.43,549.84,86.65,547.03,86.47z M529.75,66.23h16.15c-0.23,0.04-0.47,0.09-0.7,0.15c-4.46,0.56-8.63,2.18-12.27,4.6
				h-3.06c-0.43,0-0.2-2.1-0.2-2.5C529.67,68.24,529.57,66.23,529.75,66.23z M544.62,58.57V46.32c0-0.12,1.03-0.05,1.16-0.05
				c0.5,0,3.32-0.28,3.32,0.21v18.33c0,0.15-6.24,0.07-6.72,0.07h-11.12c-0.58,0-1.54,0.31-1.54-0.37v-4.58h14.48
				C544.94,59.93,544.62,59.25,544.62,58.57z M555.64,59.93h13.94v4.63c0,0.68-1,0.37-1.58,0.37h-16.1c-0.35,0-1.28,0.23-1.28-0.21
				V46.25c0-0.24,3.23-0.11,3.65-0.11c0.25,0,0.74-0.16,0.74,0.15v12.57C555,59.74,554.75,59.93,555.64,59.93z M569.42,70.85h-3.3
				c-3.92-2.62-8.13-3.88-12.72-4.75h16.13c0.18,0,0.08,2.02,0.08,2.25C569.61,68.75,569.85,70.85,569.42,70.85z M492.03,94.31
				c-0.25,1.6-0.51,3.2-0.76,4.79c-0.16,0.99-0.27,1.98-0.36,2.97c-2.5-19.28,4.51-39.12,19.02-52.39
				c4.91-4.48,10.57-8.07,16.65-10.67c-1.67,1.26-3.32,2.54-4.83,4.03c-2.14,2.12-3.79,4.35-5.41,6.89
				c-2.94,4.63-4.78,9.62-5.99,14.93c-0.29,1.29-0.51,2.61-0.61,3.93c-0.05,0.75-0.05,1.51-0.07,2.25c-0.02,0.36-1.1,0.82-1.41,1.02
				c-2.31,1.49-4.27,3.29-6.24,5.2c-1.87,1.81-3.41,3.79-4.8,5.97c-1.4,2.19-3,4.49-3.84,6.98
				C492.95,91.53,492.25,92.95,492.03,94.31z M497.47,100.07c3.74-11.29,14.5-19.21,26.25-19.38c-0.24,0.42-0.48,0.83-0.7,1.26
				c-0.23,0.42-0.44,0.85-0.63,1.28c-10.18,0.73-19.32,7.74-22.59,17.61c-3.47,10.51,0.31,22.46,9.2,29.05
				c8.9,6.6,21.32,6.6,30.22,0c2.11-1.56,3.9-3.44,5.42-5.51c0.47,0.07,0.94,0.11,1.42,0.15c0.47,0.04,0.93,0.08,1.39,0.1
				c-1.79,2.75-4.06,5.22-6.77,7.23c-9.75,7.23-23.39,7.23-33.14,0C497.81,124.65,493.68,111.57,497.47,100.07z M538.03,152.87
				c-8.5-1.7-16.43-5.33-23.28-10.42c0.57,0.23,1.15,0.43,1.71,0.64c2.58,0.94,5.22,1.54,7.91,2c2.66,0.45,5.4,0.7,8.1,0.43
				c2.74-0.28,5.37-0.91,8.06-1.53c2.86-0.68,5.38-1.77,7.96-3.16c0.2-0.11,1.55,1,1.79,1.16c0.48,0.33,1.14,0.51,1.67,0.75
				c1.36,0.59,2.7,1.09,4.1,1.56c5.07,1.74,10.76,2.19,16.07,1.52c2.73-0.33,5.44-0.71,7.98-1.79c1.59-0.68,3.36-1.32,4.93-2.19
				C571.76,151.92,554.59,156.18,538.03,152.87z M591.1,131.49c-9.76,7.22-23.39,7.22-33.14,0c-2.62-1.95-4.83-4.32-6.6-6.97
				c0.45-0.04,0.89-0.11,1.35-0.17c0.46-0.07,0.91-0.15,1.37-0.23c1.49,2.03,3.27,3.86,5.33,5.39c8.9,6.59,21.33,6.59,30.22,0
				c8.91-6.58,12.69-18.53,9.21-29.04c-3.42-10.34-13.27-17.58-24.04-17.71c-0.09-0.2-0.17-0.39-0.28-0.59
				c-0.11-0.22-0.24-0.42-0.35-0.64c-0.22-0.41-0.44-0.81-0.68-1.21c0.34-0.02,0.68-0.04,1.02-0.04c11.91,0,22.87,7.98,26.64,19.4
				C604.98,111.21,600.84,124.28,591.1,131.49z M607.82,102.99c-0.04-0.43-0.09-0.83-0.13-1.22c-0.01-0.37-0.04-0.75-0.13-1.15
				c-0.02-0.11-0.04-0.23-0.07-0.35c-0.03-0.14-0.05-0.27-0.07-0.38c-0.01,0-0.01,0.01-0.01,0.01c-0.24-1.2-0.48-2.39-0.74-3.58
				c-0.63-2.77-1.75-5.39-2.76-8.04c-0.48-1.24-1.49-2.41-2.21-3.53c-0.73-1.15-1.54-2.25-2.33-3.36c-1.46-2.09-3.42-3.87-5.25-5.64
				c-1.11-1.08-2.26-1.96-3.51-2.89c-0.42-0.3-1.41-0.38-1.67-0.68c-0.25-0.31-0.06-1.76-0.07-2.16c-0.1-2.84-0.62-5.63-1.14-8.41
				c-0.47-2.54-1.75-5.03-2.73-7.4c-2.03-4.91-5.8-9.19-9.46-12.94c-0.46-0.46-0.87-0.95-1.31-1.38
				c11.87,5.62,21.89,15.15,27.97,27.3C607.81,78.38,609.61,90.94,607.82,102.99z"/>
		</g>
	</g>
</g>
<g>
</g>
<g>
</g>
<g>
</g>
<g>
</g>
<g>
</g>
<g>
</g>
</svg>
