<?xml version="1.0" encoding="UTF-8" standalone="no"?>
<svg
   xmlns:dc="http://purl.org/dc/elements/1.1/"
   xmlns:cc="http://creativecommons.org/ns#"
   xmlns:rdf="http://www.w3.org/1999/02/22-rdf-syntax-ns#"
   xmlns:svg="http://www.w3.org/2000/svg"
   xmlns="http://www.w3.org/2000/svg"
   height="29.679001"
   width="29.679001"
   id="svg2"
   style="overflow:visible"
   data-id="22288803b9543addc72730da566ef508"
   class="ng-element"
   viewBox="0 0 29.679001 29.679001"
   preserveAspectRatio="xMidYMid meet"
   version="1.1">
  <metadata
     id="metadata12">
    <rdf:RDF>
      <cc:Work
         rdf:about="">
        <dc:format>image/svg+xml</dc:format>
        <dc:type
           rdf:resource="http://purl.org/dc/dcmitype/StillImage" />
        <dc:title></dc:title>
      </cc:Work>
    </rdf:RDF>
  </metadata>
  <defs
     id="defs10" />
  <g
     transform="translate(-4.0639996,-2.6612162)"
     id="g4">
    <path
       style="fill:#ffffff"
       id="path6"
       vector-effect="non-scaling-stroke"
       d="m 19.103,26.901 c -0.463,0 -0.867,-0.316 -0.979,-0.768 l -3.041,-12.449 -2.701,4.533 c -0.182,0.305 -0.51,0.492 -0.865,0.492 l -6.445,0 c -0.557,0 -1.008,-0.451 -1.008,-1.008 0,-0.557 0.451,-1.006 1.008,-1.006 l 5.873,0 3.668,-6.156 c 0.209,-0.352 0.611,-0.541 1.016,-0.48 0.405,0.061 0.732,0.359 0.828,0.758 L 19.053,21.44 21.815,8.891 c 0.092,-0.422 0.443,-0.736 0.874,-0.785 0.43,-0.045 0.842,0.186 1.023,0.578 l 3.689,7.943 5.334,0 c 0.557,0 1.008,0.451 1.008,1.008 0,0.557 -0.451,1.006 -1.008,1.006 l -5.977,0 c -0.391,0 -0.748,-0.227 -0.912,-0.582 L 23.141,12.237 20.088,26.11 c -0.102,0.457 -0.504,0.785 -0.973,0.791 -0.004,0 -0.008,0 -0.012,0 z" />
  </g>
</svg>
